<?xml version="1.0" standalone="no"?>
<!DOCTYPE svg PUBLIC "-//W3C//DTD SVG 1.1//EN" "http://www.w3.org/Graphics/SVG/1.1/DTD/svg11.dtd" >
<svg xmlns="http://www.w3.org/2000/svg">
<metadata>Generated by IcoMoon</metadata>
<defs>
<font id="Sport195-ICONS" horiz-adv-x="1024">
<font-face units-per-em="1024" ascent="960" descent="-64" />
<missing-glyph horiz-adv-x="1024" />
<glyph unicode="&#x20;" d="" horiz-adv-x="512" />
<glyph unicode="&#x21;" d="M101.885 35.539v832.428q0 26.746 18.77 45.516t45.516 18.77h63.348v-960.061h-63.348q-26.746 0-45.516 18.77t-18.77 44.578zM262.366-27.807v960.061h351.928v-512.409l94.786 96.194 97.133-96.194v512.409h63.348q26.746 0 45.751-18.77t19.004-45.516v-832.428q0-25.808-18.77-44.578t-45.986-18.77h-607.194z" />
<glyph unicode="&#x22;" d="M324 424v135h99v115q0 34 11.25 65.5t35 55.5 60 38.5 87.25 14.5q20.5 0 37.5-1t30.5-2q15.5-1 27.5-2l-3-126h-86q-37 0-47.25-16t-10.25-43.5v-98.5h147.5l-7-135h-140.5v-376h-142.5v376h-99z" />
<glyph unicode="&#x23;" d="M88.471 59.47v368.352q0 34.724 24.401 59.594t60.063 24.87h28.624v168.926q0 53.024 19.708 99.009t54.432 80.709 80.709 54.901 99.009 20.177h113.556q53.024 0 99.009-20.177t80.474-54.901 54.667-80.709 20.177-99.009v-27.685h-85.401v23.931q0 41.293-17.831 73.905t-48.566 54.901-71.559 33.785-87.747 11.496-87.982-11.496-71.793-33.785-48.332-54.901-17.596-73.905v-165.172h564.963q35.663 0 60.063-25.104t24.401-59.358v-368.352q0-35.663-24.401-60.063t-60.063-24.401h-678.518q-35.663 0-60.063 24.401t-24.401 60.063z" />
<glyph unicode="&#x24;" d="M73.703 156.618l5.455 4.546 23.638 9.092 34.093 10.456 41.821 19.546 49.549 16.819 36.366 7.273 33.639 11.364 35.002 19.546 36.366 20.456 25.456 19.546 10.91 23.183 6.819 23.183 3.637 44.549v15.001l-2.727 20.456-5 15.91-4.546 11.364-13.183 25.91-5.455 24.093-5.455 21.366-1.818 9.546-11.364 6.364-6.364 4.546-7.728 3.182-10 20.456-2.727 11.819-4.546 26.365 7.273 19.546 15 7.273-0.91 41.821 2.727 40.912 5.455 55.912 11.364 29.093 17.729 26.82 1.818 19.546 5.455 1.818 12.273 10.456 25.91 16.365 39.093 17.729 22.274 33.639h36.366l19.546 0.91 14.092-3.637 13.637-4.546 18.637-17.729 16.819-16.819 19.546-20.456 20.456-19.546 8.636-12.273 14.547-41.821 7.728-43.639 0.91-76.369-5.455-38.184 7.273 0.91 14.092-0.91 9.092-15 0.91-11.819-1.818-24.547-10.91-11.819-24.547-22.274v-34.547l-6.364-20.456-13.183-22.274-9.092-20.91-13.183-11.819-10.91-11.364-12.273-19.546 2.727-37.276 15.91-33.184 27.73-40.912 35.456-28.184 34.549-17.729 38.185-15.001 60.459-21.366 37.276-15.91 85.46-32.275 3.182-166.829-5-0.91h-465.484l-412.299 3.637 1.818 40.003z" />
<glyph unicode="&#x25;" d="M91.479 451.245q0 32.423 12.798 60.365t34.129 48.846 50.552 33.275 62.498 12.372q54.18 0 95.134-31.57l218.423 154.432q-5.972 17.917-5.972 39.674 0 32.423 12.584 60.365t34.129 48.846 50.34 33.062 62.072 12.159 62.498-12.159 50.552-33.062 33.916-49.059 12.584-60.152q0-32.423-12.584-60.791t-33.916-49.487-50.767-33.275-62.285-12.159q-44.368 0-80.629 22.611l-228.662-163.391q0.854-5.12 0.854-10.239v-21.117t-0.854-10.452l228.662-163.391q35.836 22.611 80.629 22.611 33.275 0 62.498-12.159t50.552-33.489 33.916-49.701 12.584-59.938q0-32.423-12.584-60.365t-33.916-48.846-50.767-33.275-62.285-12.372q-33.275 0-62.072 12.372t-50.34 33.275-34.129 48.846-12.584 60.365q0 21.757 5.972 39.248l-218.423 154.432q-40.954-31.57-95.134-31.142-33.275 0-62.498 12.159t-50.552 33.062-34.129 48.846-12.798 60.365z" />
<glyph unicode="&#x26;" d="M206.526-27.807v790.667h622.68v-790.667l-311.105 282.482zM206.526 819.637v113.556h622.68v-113.556h-622.68z" />
<glyph unicode="&#x27;" d="M118.294 580.31q0.939 40.354 16.893 74.374t42.935 59.124 61.94 38.947 74.374 13.842l-9.385-383.367q-40.354 0.939-75.078 17.362t-59.124 42.701-38.478 61.94-14.077 75.078zM252.027 60.394q0 21.116 2.815 48.566t10.793 63.112q6.569 16.423 11.262 32.378 4.693 13.608 8.212 28.858t3.519 26.043v5.631q-3.754 12.669-7.977 22.992-2.815 9.385-4.693 18.301t-1.877 13.608q0 2.815 0.939 2.815 1.877 0 3.754-1.877l148.28-38.478 1.877-1.877q2.815-2.815 2.815-4.693 0-3.754-3.754-8.212t-15.484-11.027q-19.238-22.992-24.401-49.505t-5.161-42.935q0-24.87 5.161-45.047t5.161-39.416q0-29.562-6.804-50.443t-14.311-34.020q-9.385-16.423-21.116-26.277-1.877-1.877-6.804-2.346t-10.557-0.469q-7.508 0-14.781 0.469t-12.904 1.408q-6.569 0.939-13.608 1.877-11.731 0-20.177 10.793-7.508 8.447-13.842 26.746t-6.335 53.024zM374.967 382.292l10.793 382.43q70.385 16.423 148.749 39.416 66.163 19.238 150.391 48.566t171.507 69.682q-8.447-45.986-14.077-102.763-4.693-48.801-9.15-114.729t-4.458-143.822q0-68.978 4.223-133.967t9.385-115.667q5.631-59.594 14.077-110.741-33.785 20.177-71.559 38.947t-78.128 35.193-80.709 31.204-76.956 26.512q-86.34 27.685-174.087 49.74z" />
<glyph unicode="&#x28;" d="M38.478 77.771q9.385 48.801 35.897 91.736t54.197 75.313q32.846 38.478 71.324 70.385l33.785 34.724q11.731 16.423 12.2 41.293 0 21.116-11.027 54.197t-46.689 79.066q-23.931 31.909-34.958 63.582t-11.027 61.94 11.027 57.716 32.143 48.566q20.177 21.116 41.762 39.416t58.186 29.562q46.924 15.485 85.401 13.608t66.866-11.966 46.689-23.931 26.277-23.697q6.569-9.385 10.793-17.596t8.681-15.484 9.62-13.608 14.077-12.904q8.447-6.569 11.731-15.72t3.285-17.831-1.408-16.423-1.408-10.557q0-3.754 6.335-11.496t15.485-17.362 20.177-20.647 20.412-21.35q9.385-10.793 8.681-18.535t-5.631-12.435-11.496-7.508-8.447-4.223q-1.877-0.939-1.408-5.161t1.877-9.62 2.346-10.557 0-6.1q-0.939-1.877-6.335-4.223t-11.966-4.693q-7.508-2.815-16.423-5.631 9.385-0.939 17.362-2.815 15.485-3.754 20.177-9.385 1.877-3.754 1.877-5.866t-0.939-3.988-2.815-3.754q1.877-0.939 3.754-4.693t3.754-10.557 4.693-17.596q5.631-22.055-14.311-38.947t-60.297-16.893q-20.177 0-32.378-7.508t-18.77-16.423q-7.508-10.793-10.323-23.931 0-10.793-2.346-19.238-1.877-7.508-4.693-14.781t-7.508-10.089q-5.631-3.754-11.027-16.893t-10.089-26.277q-4.693-17.362-10.793-36.6 1.877-0.939 6.804-7.742t11.496-16.423 14.781-21.585 17.127-24.635q19.238-29.562 42.232-65.224h-498.801zM651.772 536.216v9.385q0 34.724 13.374 65.458t36.366 52.789 53.728 35.193 66.397 13.139h0.939q0.939 0 1.877 0.469t1.877 0.469q34.724 0 65.458-12.904t53.259-35.663 35.663-53.493 13.139-66.397v-5.631t-0.939-2.815h-341.137zM651.772 551.702v16.423h341.137q0.939-7.508 0.939-10.089v-6.335q0-34.724-13.139-66.397t-35.663-55.135-53.259-37.539-65.458-14.077q-0.939 0-1.877 0.469t-1.877 0.469h-0.939q-35.663 0-66.397 14.077t-53.728 37.539-36.366 54.667-13.374 65.928zM682.273 536.216q1.877-8.447 4.223-17.596t7.508-25.573h35.193q-1.877 16.423-3.285 25.573t-2.346 17.596h-41.293zM682.273 568.125h41.293q0.939 7.508 2.346 17.127t3.285 26.043h-35.193q-4.693-16.423-7.273-26.043t-4.458-17.127zM713.242 471.931q9.385-16.423 21.35-28.858t25.573-19.474q-12.669 14.547-21.116 48.332h-25.808zM713.242 631.473h25.808q8.447 32.378 21.116 47.862-13.608-6.569-25.573-19.004t-21.35-28.858zM752.659 536.216q0.939-8.447 2.815-17.596t4.693-25.573h43.17v43.17h-50.678zM752.659 568.125h50.678v43.17h-43.17q-2.815-16.423-4.693-26.043t-2.815-17.127zM770.959 471.931q3.754-7.508 7.977-18.301t8.212-20.412 8.212-16.658 7.977-9.854v65.224h-32.378zM770.959 631.473h32.378v51.616q-7.508-4.693-16.189-19.943t-16.189-31.673zM836.183 406.707q3.754 2.815 7.977 9.854t9.15 16.658 9.62 20.177 8.915 18.535h-35.663v-65.224zM836.183 493.047h46.924q1.877 16.423 3.754 25.573t2.815 17.596h-53.493v-43.17zM836.183 568.125h53.493q-0.939 7.508-2.815 17.127t-3.754 26.043h-46.924v-43.17zM836.183 631.473h35.663q-7.508 16.423-17.831 31.673t-17.831 19.943v-51.616zM883.107 423.599q13.608 6.569 25.104 19.238t20.881 29.093h-25.808q-8.447-32.846-20.177-48.332zM883.107 679.335q11.731-16.423 20.177-47.862h25.808q-9.385 16.423-20.881 28.858t-25.104 19.004zM913.138 493.047h35.193q4.693 16.423 7.273 25.573t4.458 17.596h-40.354q-0.939-8.447-2.815-17.596t-3.754-25.573zM913.138 611.294q1.877-16.423 3.754-26.043t2.815-17.127h40.354q-1.877 7.508-4.223 17.127t-7.508 26.043h-35.193z" />
<glyph unicode="&#x29;" d="M53.409 197.529q0 24.093 17.274 41.367t41.367 17.274h57.732q24.093 0 41.367-17.274t17.274-41.367v-57.732q0-24.093-17.274-41.367t-41.367-17.274h-57.732q-24.093 0-41.367 17.046t-17.274 41.593v57.732zM53.409 431.181v57.732q0 24.093 17.274 41.367t41.367 17.274h57.732q24.093 0 41.367-17.274t17.274-41.367v-57.732q0-24.093-17.274-41.367t-41.367-17.274h-57.732q-24.093 0-41.367 17.046t-17.274 41.593zM53.409 722.562v57.732q0 24.093 17.274 41.367t41.367 17.274h57.732q24.093 0 41.367-17.274t17.274-41.367v-57.732q0-24.093-17.274-41.367t-41.367-17.274h-57.732q-24.093 0-41.367 17.046t-17.274 41.593zM286.152 197.529q0 24.093 17.274 41.367t41.367 17.274h582.765q24.093 0 40.912-17.274t16.819-41.367v-57.732q0-24.093-16.819-41.367t-40.912-17.274h-582.765q-24.093 0-41.367 17.046t-17.274 41.593v57.732zM286.152 431.181v57.732q0 24.093 17.274 41.367t41.367 17.274h582.765q24.093 0 40.912-17.274t16.819-41.367v-57.732q0-24.093-16.819-41.367t-40.912-17.274h-582.765q-24.093 0-41.367 17.046t-17.274 41.593zM286.152 722.562v57.732q0 24.093 17.274 41.367t41.367 17.274h582.765q24.093 0 40.912-17.274t16.819-41.367v-57.732q0-24.093-16.819-41.367t-40.912-17.274h-582.765q-24.093 0-41.367 17.046t-17.274 41.593z" />
<glyph unicode="&#x2a;" d="M38.585 220.888q22.055 2.815 47.862 11.731 22.055 7.508 52.789 20.412t67.336 35.427q5.631 2.815 11.496 7.508t10.793 13.374 8.212 21.585 3.285 32.143q0 29.562-11.731 86.809l-0.939 2.815q-17.362 8.447-29.327 30.031t-11.966 49.74q0 25.808 12.669 47.862l-13.608 61.47q-0.939 6.569-1.877 12.669-0.939 4.693-0.939 11.027v11.966q0 15.484 4.223 32.143t10.089 30.736 11.731 23.228 8.681 10.089h0.939q11.731 13.608 45.281 26.982t76.72 14.311h0.939q31.909-0.939 55.37-7.273t39.651-15.485 26.982-20.177 16.423-21.35q39.416 22.992 83.29 35.427t91.736 12.435q71.324 0 133.499-26.982t109.332-73.436 74.139-108.863 26.982-133.733-26.982-133.733-74.139-109.568-109.568-73.905-133.264-26.746q-7.508 0-11.731 0.939l-604.379-0.939v109.332zM474.038 423.599q0.939-16.423 2.815-31.204t4.693-29.327h133.733v60.531h-141.241zM482.484 483.193h132.794v90.563h-128.102q-0.939 0-0.939-0.939 3.754-9.385 6.335-19.708t2.581-21.585q0-13.608-3.988-25.573t-8.681-22.758zM496.092 707.488q0-1.877 0.469-4.458t0.469-4.458q6.569 9.385 15.016 18.301-4.693-1.877-8.447-4.223t-7.508-5.162zM498.907 303.474q4.693-10.793 8.915-20.177t10.323-19.238q30.97-15.485 55.84-23.931t41.293-13.139v76.486h-116.371zM508.292 632.41h106.987v106.517q-30.97-16.423-59.358-43.17t-47.628-63.348zM644.84 160.357q7.508-1.877 8.915-1.877 10.793 1.877 35.663 12.669t52.555 35.663q44.108 39.416 66.163 96.663h-163.295v-143.117zM644.84 363.068h180.656q2.815 14.547 4.693 29.562t2.815 30.97h-188.164v-60.531zM644.84 483.193h188.164q-0.939 24.87-4.223 47.159t-8.915 43.405h-175.026v-90.563zM644.84 632.41h153.91q-17.362 32.846-38.947 54.901t-42.701 35.897-38.478 20.647-24.87 8.681q-0.939 0-8.915-1.877v-118.249zM788.897 189.449q77.893 39.417 122.002 114.025h-54.432q-10.793-30.97-26.746-59.594t-40.824-54.432zM792.651 719.689q35.663-39.416 54.901-87.279h47.393q-41.293 55.84-102.294 87.279zM866.79 573.755q5.631-22.992 8.212-45.751t4.458-44.812h71.793q-4.693 48.801-22.992 90.563h-61.47zM871.483 363.068h66.632q4.693 14.547 7.977 29.562t5.161 30.97h-72.732q0-14.547-2.346-29.327t-4.693-31.204z" />
<glyph unicode="&#x2b;" d="M52.47 451.637q0 96.825 36.82 181.375t100.007 147.964 147.964 100.234 181.603 36.82 181.603-36.82 147.964-100.234 100.007-147.964 36.82-181.375q0-64.095-16.819-123.871t-47.048-111.37-72.505-93.869-94.552-72.732-111.825-47.048-123.644-16.592q-96.825 0-181.603 36.82t-147.964 99.552-100.007 147.51-36.82 181.603zM179.751 451.637q0-70.005 26.592-131.827t72.732-107.961 107.961-72.732 131.827-26.593 131.827 26.593 107.961 72.732 72.505 107.961 26.366 131.827q0 70.914-26.366 132.736t-72.505 107.961-108.188 72.505-131.6 26.365q-70.005 0-131.827-26.365t-107.961-72.505-72.732-107.961-26.592-132.736zM363.399 528.005q1.364 34.549 11.819 62.276 16.819 41.821 52.731 67.504t89.097 25.683q47.276 0 77.505-13.637t47.958-32.275 24.774-40.003 7.046-36.366q0-32.729-9.774-54.549t-22.956-35.684-26.593-22.274-20.683-13.864q-13.183-10.456-22.956-22.956t-12.501-31.139v-23.183h-85.005v27.73q0.91 30.912 11.819 51.821t23.865 33.866 25.001 20.456 16.592 12.046q10.456 9.092 17.046 18.637t6.591 25.456q0 62.276-53.185 62.276-20.456 0-33.411-8.41t-20.002-20.91-9.319-27.047-2.273-25.456h-93.188zM464.769 269.807q0 20.456 14.547 35.002t35.912 14.547q20.456 0 34.775-14.547t14.319-35.002-14.319-34.775-34.775-14.319q-21.366 0-35.912 14.319t-14.547 34.775z" />
<glyph unicode="&#x2c;" d="M26.073 558.975q-13.842 66.397 18.065 132.091 15.484 31.909 39.885 57.247t55.604 42.701 66.866 25.339 75.078 6.1q77.893-3.754 137.018-44.108t83.994-107.456q24.87 67.101 84.463 107.456t137.487 44.108q38.478 1.877 74.374-6.1t66.632-25.339 54.901-42.935 40.589-57.013q31.909-65.224 18.301-131.621t-68.509-116.606q-76.956-68.978-136.079-122.94t-106.517-98.070-87.279-82.117-78.363-75.547q-38.478 37.539-78.363 75.547t-87.513 82.117-106.751 98.070-135.141 122.94q-54.901 49.739-68.743 116.137z" />
<glyph unicode="&#x2d;" d="M37.6 31.785h961v-64.285h-961v64.285zM165.233 96.072v384.306q0 25.808 18.77 44.578t45.516 18.77h64.755q25.808 0 44.578-18.77t18.77-44.578v-384.306h-192.388zM421.906 96.072v576.694q0 25.808 18.77 44.578t45.516 18.77h63.348q26.746 0 45.751-18.77t19.004-44.578v-576.694h-192.388zM678.579 96.072v768.612q0 25.808 18.77 44.812t44.578 19.004h64.285q26.746 0 45.516-18.77t18.77-45.047v-768.612h-191.918z" />
<glyph unicode="&#x2e;" d="M22.585 225.581v500.677q0 64.285 11.496 101.355t39.416 55.37 73.905 22.758 114.495 4.458h482.377q68.039 0 113.79-4.458t73.671-22.758 39.417-55.135 11.496-101.59v-500.677q0-65.224-11.496-108.863t-39.417-69.682-73.671-37.070-113.79-11.027h-482.377q-68.039 0-114.259 11.027t-74.139 37.070-39.417 69.682-11.496 108.863zM119.717 371.983h268.874v-127.164l221.012 221.012-221.012 221.48v-106.048h-268.874v-209.28zM154.91 406.707v140.302h268.405v56.309l137.487-137.487-137.487-136.079v76.956h-268.405zM154.91 406.707v118.717h268.405v77.893l137.487-137.487-137.487-136.079v76.956h-268.405zM525.139 121.879h122.94v625.964l215.38 63.348h-338.32v-259.488l84.463-85.871-84.463-84.463v-259.488z" />
<glyph unicode="&#x30;" d="M38.539 159.418q14.547 1.877 31.439 7.977 15.484 4.693 35.663 13.374t45.047 22.758q7.508 4.693 15.016 14.547t7.508 35.663q0 10.793-1.642 25.104t-6.335 33.551v1.877q-12.669 4.693-19.708 19.708t-7.039 33.316 7.508 31.439l-9.385 41.293q-0.939 2.815-0.939 7.039v14.077q0 42.232 22.523 67.805t82.117 25.573q28.624 0 51.382-9.15t30.266-17.596h0.939q3.754-1.877 12.435-19.708t10.557-40.824q0-3.754-0.469-7.742t-0.469-8.681q-0.939-4.693-0.939-10.793l-9.385-41.293q8.447-13.608 8.447-32.846 0-17.362-7.742-32.143t-19.004-19.474l-0.939-1.877q-4.693-19.238-6.335-33.316t-1.642-24.401q0-25.808 7.273-35.897t14.781-15.25q23.931-14.547 44.812-22.992t35.897-13.139q17.362-5.631 31.909-7.977v-72.732h-403.545v72.732zM267.057 182.411q18.301 1.877 41.293 9.854 19.238 5.631 46.22 17.127t58.889 30.736q9.385 5.631 19.474 18.301t10.089 45.986q0 14.547-2.346 33.785t-7.977 44.108v1.877q-14.547 7.508-25.573 26.043t-11.027 43.405 11.262 42.232l-12.2 53.962q-0.939 5.631-0.939 10.323-0.939 4.693-0.939 10.089v10.089q0 13.608 3.754 28.389t8.915 26.982 10.089 20.177 7.742 7.977q10.793 11.731 40.589 24.165t65.928 12.435h0.939q37.539 0 66.866-12.435t40.12-24.165h0.939q1.877-0.939 6.569-7.977t10.089-18.77 9.15-26.512 3.754-30.266q0-4.693-0.469-10.089t-0.469-10.089q-0.939-4.693-0.939-10.323l-12.2-53.962q10.793-18.301 10.323-42.232 0-24.87-10.557-43.17t-25.104-26.277v-1.877q-5.631-24.87-7.977-44.108t-2.346-33.785q0-16.423 2.815-27.451t7.273-18.065 9.62-11.496 9.854-7.273q30.97-19.238 58.42-30.736t46.689-17.127q22.992-7.508 42.232-9.854v-95.725h-528.832v95.725zM594.117 159.418q14.547 1.877 31.439 7.977 15.485 4.693 35.663 13.374t45.047 22.758q7.508 4.693 14.781 14.547t7.273 35.663q0 10.793-1.408 25.104t-6.1 33.551v1.877q-12.669 4.693-19.708 19.708t-7.039 33.316 7.508 31.439l-9.854 41.293q-0.939 2.815-0.939 7.039v14.077q0 42.232 22.758 67.805t82.351 25.573q28.624 0 51.147-9.15t30.5-17.596h0.939q2.815-1.877 11.966-20.177t11.027-40.354q0-3.754-0.469-7.742t-0.469-8.681q-0.939-4.693-0.939-10.793l-9.854-41.293q8.447-13.608 8.915-32.846 0-17.362-7.742-32.143t-19.474-19.474l-0.939-1.877q-4.693-19.238-6.1-33.316t-1.408-24.401q0-25.808 7.273-35.897t14.781-15.25q23.931-14.547 44.578-22.992t36.131-13.139q17.362-5.631 31.909-7.977v-72.732h-403.545v72.732z" />
<glyph unicode="&#x31;" d="M38.712 509.368q0 23.183 36.366 44.094t99.097 36.366 147.51 24.32 180.693 8.864 180.466-8.864 147.51-24.32 99.325-36.366 36.366-44.094q0-21.366-33.639-41.821-15.001 12.273-32.729 20.91t-35.684 14.773-34.32 9.774-27.729 6.364q-61.368 13.183-137.737 19.774t-160.92 6.591-160.92-6.591-138.19-19.774q-11.364-2.727-27.956-6.364t-34.775-10.227-36.139-15.229-32.047-20.91q-34.549 20.456-34.549 42.73zM39.622 425.271q28.638-20.456 71.141-34.32t90.461-23.183 97.279-14.547 91.142-7.955 72.050-3.182 40.685-0.454 40.457 0.454 72.050 3.182 91.37 7.955 97.279 14.547 90.232 23.638 71.369 34.775l-53.185-206.377q-3.637-14.092-20.456-28.411t-44.776-27.047-64.776-23.41-81.369-17.956q-7.273 34.549-25.001 64.322t-44.321 51.595-59.549 33.866-69.323 12.046-69.323-12.046-59.549-33.866-44.776-51.139-24.547-63.868q-44.549 7.273-81.596 17.956t-63.868 23.865-42.73 27.956-18.637 31.593zM68.26 633.012q0 12.273 8.41 20.683t20.683 8.41 20.456-8.41 8.183-20.683-8.183-20.456-20.456-8.183-20.683 8.183-8.41 20.456zM139.174 439.364q24.093 11.364 61.822 20.228t84.778 14.773 102.052 9.774 115.461 3.863q59.549 0 115.007-3.863t102.279-9.774 84.096-14.773 62.731-20.228q-64.095-19.546-158.646-31.593t-206.377-12.046q-110.917 0-205.013 12.046t-158.192 31.593zM155.083 662.105q0 12.273 8.41 20.456t20.228 8.183q12.273 0 20.683-8.41t8.41-20.228q0-12.273-8.41-20.683t-20.683-8.41-20.456 8.41-8.183 20.683zM241.453 690.743q0 12.273 8.41 20.683t20.683 8.41q13.183 0 20.91-8.41t7.728-20.683-7.728-20.456-20.91-8.183q-12.273 0-20.683 8.183t-8.41 20.456zM386.917 82.977q0 30.002 8.864 55.912t24.093 45.458 36.82 31.139 45.685 11.592 45.002-11.592 36.82-31.139 24.774-45.685 8.864-55.686h-230.925zM705.119 690.743q0 12.273 8.41 20.683t20.683 8.41 20.456-8.41 8.183-20.683-8.183-20.456-20.456-8.183-20.683 8.183-8.41 20.456zM791.943 662.105q0 12.273 8.41 20.456t20.228 8.183q12.273 0 20.683-8.41t8.41-20.228q0-12.273-8.41-20.683t-20.683-8.41-20.456 8.41-8.183 20.683zM878.312 633.012q0 12.273 8.41 20.683t20.683 8.41 20.456-8.41 8.183-20.683-8.183-20.456-20.456-8.183-20.683 8.183-8.41 20.456z" />
<glyph unicode="&#x32;" d="M40.9 455.508q0 100.887 38.947 187.461t105.109 148.983 155.083 97.836 189.807 35.427q98.070 0 183.237-36.366t148.514-100.417 99.479-149.922 36.131-183.941q0-8.447-0.469-18.065t-1.408-9.62h-952.553q-0.939 0-1.408 9.385t-0.469 19.238zM40.9 474.746q0 8.447 0.469 14.781t1.408 28.389h952.553q0-11.731 0.469-17.831t0.939-10.557 0.469-7.273v-7.508q0-98.070-36.131-185.583t-99.479-153.206-148.514-104.171-183.237-38.478q-100.887 0-189.807 37.539t-155.083 102.294-105.109 152.737-38.947 188.868zM129.117 426.884q3.754-22.055 11.496-47.628t20.412-69.682h99.009q-6.569 44.108-11.027 69.448t-6.335 47.862h-113.556zM129.117 517.917h113.556q1.877 22.055 6.335 47.628t11.027 70.62h-99.009q-12.669-45.047-20.177-70.62t-11.731-47.628zM213.111 249.982q26.746-45.047 59.828-80.24t71.559-54.432q-34.724 44.108-57.716 134.672h-73.671zM213.111 696.697h73.671q22.992 90.563 57.716 134.672-38.478-19.238-71.559-54.432t-59.828-80.24zM324.32 426.884q1.877-22.055 6.804-47.628t12.435-69.682h120.125v117.31h-139.363zM324.32 517.917h139.363v118.249h-120.125q-7.508-45.047-12.435-70.62t-6.804-47.628zM375.467 249.982q10.793-22.055 21.585-50.443t21.819-54.432 22.055-46.22 22.758-26.746v177.841h-88.217zM375.467 696.697h88.217v145.933q-11.731-6.569-22.758-22.055t-22.055-35.663-22.055-43.17-21.35-45.047zM553.308 249.982v-177.841q11.731 6.569 24.87 26.746t26.746 46.22 26.982 54.432 24.165 50.443h-102.763zM553.308 309.574h134.202q7.508 44.108 12.904 69.448t7.273 47.862h-154.379v-117.31zM553.308 517.917h154.379q-1.877 22.055-7.039 47.628t-13.139 70.62h-134.202v-118.249zM553.308 696.697h102.763q-10.793 22.055-24.165 45.047t-26.982 43.17-26.982 35.663-24.635 22.055v-145.933zM687.51 115.31q38.478 19.238 71.559 54.197t59.358 80.474h-73.202q-22.992-90.563-57.716-134.672zM687.51 831.367q34.724-44.108 57.716-134.672h73.202q-25.808 45.047-59.124 80.24t-71.793 54.432zM771.973 309.574h99.009q12.669 44.108 20.412 69.448t11.496 47.862h-113.556q-1.877-22.055-6.1-47.628t-11.262-69.682zM771.973 636.164q6.569-45.047 11.027-70.62t6.335-47.628h113.556q-3.754 22.055-11.496 47.628t-20.412 70.62h-99.009z" />
<glyph unicode="&#x33;" d="M156.435 42.884q0 13.183 8.864 21.366t21.137 8.183h90.461v807.324q0 13.183 8.183 21.819t21.366 8.636q12.273 0 21.137-8.864t8.864-21.592v-807.324h89.097q13.183 0 21.592-8.41t8.41-21.137v-60.004h-299.11v60.004zM395.996 551.098v298.655h478.213l-119.098-156.374 119.098-142.281h-478.213z" />
<glyph unicode="&#x34;" d="M124.603 34.601v622.68q0 15.484 7.742 26.512t19.708 18.301 27.451 11.027 30.97 3.754h244.004l-63.348 110.741q-20.177 1.877-34.254 19.004t-14.077 37.305q0 21.116 15.016 36.131t36.131 15.016 35.897-15.016 14.781-36.131q0-7.508-2.815-14.077l81.647-135.609 80.709 132.325q-2.815 6.569-2.815 14.547 0 22.055 14.547 36.6t36.6 14.547q21.116 0 35.897-15.954t14.781-37.070q0-20.177-13.842-35.897t-34.020-18.065l-61.47-108.394h240.25q29.562 0 47.393-14.311t17.831-45.281v-622.68q0-30.97-17.831-45.751t-47.393-14.781h-623.617q-15.484 0-30.97 3.754t-27.451 11.496-19.708 18.77-7.742 26.512zM220.797 186.634q0-5.631 3.519-14.547t8.212-16.893 11.496-13.842 14.311-5.866h530.708q6.569 0 9.854 5.866t4.223 13.842 0.469 16.658-0.469 14.781v428.415t-14.077 3.754h-530.708q-14.547 0-26.043-3.754t-11.496-14.547v-413.868z" />
<glyph unicode="&#x35;" d="M38.448 451.754q0 99.009 37.539 185.349t102.294 151.329 151.329 102.529 185.583 37.539 185.819-37.539 151.798-102.529 102.529-151.329 37.539-185.349-37.539-186.053-102.529-151.798-151.798-102.294-185.819-37.539-185.583 37.539-151.329 102.294-102.294 151.798-37.539 186.053zM157.634 451.754q0-74.139 28.389-139.363t76.956-113.79 113.321-76.956 138.895-28.389 139.363 28.389 113.79 76.956 76.956 113.79 28.389 139.363-28.389 138.895-76.956 113.321-114.025 76.956-139.129 28.389q-74.139 0-138.895-28.389t-113.321-76.956-76.956-113.321-28.389-138.895zM306.383 392.16v119.186h418.091v-119.186h-418.091z" />
<glyph unicode="&#x36;" d="M21.616 456.447q0 66.163 17.362 127.633t48.566 114.963 74.844 97.133 96.897 74.844 114.729 48.566 128.102 17.362q99.009 0 186.991-38.008t152.737-102.763 102.763-152.737 38.008-186.991q0-66.163-17.362-127.633t-48.566-114.963-74.844-97.133-97.133-74.844-114.964-48.566-127.633-17.362-127.867 17.362-114.964 48.566-96.897 74.844-74.844 97.133-48.566 114.963-17.362 127.633zM141.741 456.447q0-75.078 28.389-140.302t77.424-114.259 114.259-77.424 140.302-28.389 140.302 28.389 114.259 77.424 77.424 114.259 28.389 140.302-28.389 140.302-77.424 114.259-114.259 77.424-140.302 28.389-140.302-28.389-114.259-77.424-77.424-114.259-28.389-140.302zM292.366 395.914v120.125h150.156v149.687h120.125v-149.687h149.687v-120.125h-149.687v-150.156h-120.125v150.156h-150.156z" />
<glyph unicode="&#x37;" d="M34.694 425.477v59.594q0 24.87 17.362 42.701t42.232 17.831h85.401q5.631 22.055 14.781 42.935t19.943 40.12l-60.531 60.531q-17.362 17.362-17.362 42.232t17.362 42.232l43.17 43.17q17.362 17.362 41.293 17.362 11.731 0 23.228-4.458t19.943-12.904l60.531-60.531q19.238 10.793 39.885 19.708t42.701 15.016v84.463q0 24.87 17.831 42.701t42.701 17.831h59.594q24.87 0 42.701-17.831t17.831-42.701v-84.463q22.055-5.631 42.701-14.781t39.885-19.943l60.531 60.531q17.362 17.362 42.701 17.362 24.87 0 42.232-17.362l43.17-43.17q17.362-17.362 17.362-42.232t-17.362-42.232l-60.531-60.531q10.793-19.238 19.708-39.885t15.016-43.17h85.401q24.87 0 42.232-17.596t17.362-42.935v-59.594q0-24.87-17.362-42.701t-42.232-17.831h-85.401q-5.631-22.055-15.016-42.701t-19.708-39.885l60.531-60.531q17.362-17.362 17.362-42.232t-17.362-42.232l-43.17-43.17q-17.362-17.362-42.232-17.362t-42.701 17.362l-60.531 60.531q-19.238-10.793-39.885-19.943t-42.701-14.781v-84.463q0-24.87-17.596-42.701t-42.935-17.831h-59.594q-24.87 0-42.701 17.831t-17.831 42.701v84.463q-22.055 5.631-43.17 14.781t-40.354 19.943l-59.594-60.531q-8.447-8.447-19.943-12.904t-23.228-4.458q-23.931 0-41.293 17.362l-43.17 43.17q-17.362 17.362-17.362 42.232t17.362 42.232l60.531 60.531q-10.793 19.238-19.943 39.885t-14.781 42.701h-85.401q-24.87 0-42.232 17.831t-17.362 42.701zM304.506 455.508q0-43.17 16.423-81.647t45.281-67.336 67.336-45.281 81.647-16.423 81.647 16.423 67.336 45.281 45.047 67.336 16.189 81.647-16.189 81.647-45.047 67.336-67.336 45.047-81.647 16.189-81.647-16.189-67.336-45.047-45.281-67.336-16.423-81.647zM424.631 455.508q0 18.301 7.273 35.193t19.238 28.858 28.389 19.004 35.663 7.039q18.301 0 34.958-7.039t28.858-19.004 19.238-28.858 7.039-35.193q0-19.238-7.039-35.663t-19.238-28.389-28.858-19.238-34.958-7.273q-19.238 0-35.663 7.273t-28.389 19.238-19.238 28.389-7.273 35.663z" />
<glyph unicode="&#x38;" d="M32.678 444.715v401.668q0 38.478 26.746 65.458t65.224 26.982h373.983l466.892-452.815q26.746-26.746 27.216-65.224 1.877-36.6-27.216-65.224l-351.46-350.052q-27.685-27.685-66.163-27.685-37.539 0-65.694 27.685zM142.010 751.598q0-15.484 6.335-29.327t16.423-24.401 23.931-16.893 30.266-6.335q15.484 0 29.797 5.161t26.043 16.893q22.055 23.931 22.055 54.901 0 15.485-6.335 29.797t-17.362 24.87-24.87 16.893-29.327 6.335-29.327-6.335-24.401-17.362-16.893-24.87-6.335-29.327zM290.29 493.986l307.351-306.413 22.055 22.055-307.351 306.413zM364.899 569.064l307.82-306.882 21.116 21.116-306.413 307.82zM439.977 643.672l306.413-306.413 22.523 21.116-306.882 307.351z" />
<glyph unicode="&#x39;" d="M118.969 812.129q0 12.669 4.693 27.451t14.547 24.165l61.47 61.47q7.508 7.508 21.116 12.904t25.808 5.396h4.693l269.343-23.931q12.669-1.877 27.919-8.681t25.104-15.25l497.393-498.801q8.447-8.447 8.915-21.116 0-13.608-8.915-22.055l-362.252-362.252q-10.793-8.447-22.055-8.915-12.669 0-21.116 8.915l-497.862 497.862q-9.385 9.385-16.658 24.401t-8.212 28.155zM214.225 781.159q0-27.685 19.238-46.924t46.924-19.238 46.924 19.238 19.238 46.924q0 26.746-19.708 46.689t-46.454 19.943q-27.685 0-46.924-19.708t-19.238-46.924z" horiz-adv-x="1230" />
<glyph unicode="&#x3a;" d="M36.57 457.384q0 99.009 37.539 186.522t102.294 152.268 152.268 102.294 186.522 37.539 185.819-37.539 151.798-102.294 102.529-152.268 37.539-186.522-37.539-186.053-102.529-151.798-151.798-102.294-185.819-37.539-186.522 37.539-152.268 102.294-102.294 151.798-37.539 186.053zM272.129 491.169l243.065-243.065 243.065 243.065-76.956 79.771-166.111-166.579-165.172 164.703z" />
<glyph unicode="&#x3b;" d="M32.633 454.569q0 99.009 37.539 186.522t102.763 152.737 152.268 102.763 186.991 37.539q99.009 0 186.288-37.539t152.268-102.763 102.997-152.737 38.008-186.522-38.008-186.522-102.997-152.268-152.268-102.763-186.288-38.008q-99.948 0-186.991 38.008t-152.268 102.763-102.763 152.268-37.539 186.522zM268.19 421.723l76.486-80.709 167.518 166.579 165.172-164.703 77.893 78.832-243.065 243.065z" />
<glyph unicode="&#x3c;" d="M29.817 458.323q0 99.948 37.774 187.93t103.233 153.206 153.441 103.233 187.93 38.008 187.461-38.008 152.737-103.233 103.233-153.206 38.008-187.93-38.008-187.461-103.233-152.737-152.737-103.233-187.461-38.008-187.93 38.008-153.441 103.233-103.233 152.737-37.773 187.461zM299.629 458.323l244.943-244.943 80.709 77.893-167.049 167.049 166.111 166.111-79.771 78.832z" />
<glyph unicode="&#x3d;" d="M42.339 617.865q0 64.285 23.931 120.594t65.928 98.070 98.070 66.397 120.359 24.635q63.348 0 119.656-24.635t98.070-66.397 66.397-98.070 24.635-120.594q0-63.348-24.635-119.656t-66.397-98.070-98.070-66.163-119.656-24.401q-64.285 0-120.359 24.401t-98.070 66.163-65.928 98.070-23.931 119.656zM125.863 617.865q0-45.986 17.831-86.809t48.096-71.090 71.559-48.096 87.279-17.831 87.044 17.831 71.324 48.097 48.097 71.090 17.831 86.809-17.831 87.279-48.097 71.793-71.090 48.097-87.279 17.596q-45.986 0-87.279-17.596t-71.559-48.097-48.097-71.793-17.831-87.279zM571.639 316.144q15.485 10.793 27.919 20.177t23.228 21.116 20.881 25.104 21.35 32.612l306.413-274.974q23.931-23.931 24.635-57.013t-21.35-58.42l-2.346-0.939-0.939-1.877q-24.87-22.055-57.951-21.585t-57.013 24.401z" />
<glyph unicode="&#x3e;" d="M32.633 453.63q0 99.009 37.539 186.522t102.294 152.268 152.268 102.294 186.522 37.539 186.288-37.539 152.737-102.294 102.997-152.268 37.539-186.522q0-99.948-37.539-186.991t-102.997-152.268-152.737-102.763-186.288-37.539-186.522 37.539-152.268 102.763-102.294 152.268-37.539 186.991zM398.638 619.741l165.172-166.111-164.233-165.172 78.832-78.832 243.065 244.004-243.065 243.065z" />
<glyph unicode="&#x3f;" d="M190.297 610.357q1.877 71.793 23.931 129.51 17.362 42.232 44.108 77.893t63.816 61.001 83.759 39.885 102.529 14.547q91.501 0 153.676-25.104t100.182-62.878 54.901-82.117 16.893-82.82q0-66.163-18.77-109.802t-45.751-72.966-55.37-47.159-46.22-32.378q-26.746-21.116-46.689-46.689t-25.573-64.521v-50.208h-176.902v58.655q3.754 58.655 22.523 98.070t43.405 66.163 50.443 45.047 45.047 35.663q22.055 19.238 35.193 41.762t13.139 53.493q0 124.818-111.678 124.818-34.724 0-60.063-13.842t-42.232-37.539-24.635-54.432-7.742-64.051h-191.918zM400.516 75.894q0 21.116 8.212 39.885t22.055 32.612 32.612 22.055 39.885 8.212 39.885-8.212 32.846-22.055 22.289-32.612 8.212-39.885-8.212-39.885-22.289-32.612-32.846-22.055-39.885-8.212-39.885 8.212-32.612 22.055-22.055 32.612-8.212 39.885z" />
<glyph unicode="&#x40;" d="M31.694 160.357q19.238 7.508 36.6 18.301 15.485 8.447 31.673 19.708t27.919 22.523q6.569 6.569 14.311 13.842t14.311 19.238 11.496 29.797 4.927 45.047q0 42.232-15.485 113.086v3.754q-23.931 12.669-39.885 41.997t-15.954 66.866q0 38.478 16.423 66.163l-19.238 84.463q-0.939 10.793-1.877 21.116-0.939 8.447-1.408 18.301t-0.469 17.362q0.939 21.116 7.273 42.701t14.311 39.416 15.72 28.858 10.557 11.966q8.447 8.447 24.87 18.77t38.712 18.535 49.035 13.842 55.84 5.631h0.939q28.624 0 55.604-5.631t49.035-13.842 38.478-18.301 24.87-19.004q2.815-0.939 10.557-12.435t16.423-29.797 15.016-40.824 6.335-45.516q0-7.508-0.469-16.189t-1.408-16.658q-0.939-9.385-2.346-18.301l-19.238-84.463q16.423-27.685 16.423-66.163 0-37.539-15.72-66.866t-40.12-41.997v-3.754q-8.447-39.416-12.2-68.743t-3.754-51.382q0-25.808 4.223-43.17t11.027-28.389 15.016-17.831 15.72-11.496q48.801-30.97 91.267-48.566t72.966-27.451q36.6-10.793 65.224-15.016v-150.156h-693.534v180.656zM533.31 83.402l12.2 2.346q11.731 1.877 33.316 8.915t50.443 19.708 63.582 33.785q5.631 2.815 11.496 7.508t10.557 12.435 7.508 19.708 2.815 30.266q0 15.485-2.346 36.131t-8.915 47.393v2.815q-16.423 7.508-27.919 27.919t-11.496 47.159q0 25.808 12.669 45.986l-13.608 58.655q-0.939 6.569-1.877 14.547-0.939 5.631-0.939 12.904v11.966q0.939 14.547 5.161 29.562t9.62 27.451 10.557 20.177 7.977 8.681q11.731 13.608 43.874 26.512t73.436 12.904q40.354 0 72.497-13.139t44.812-26.277q2.815-0.939 8.212-9.15t10.557-21.35 9.62-29.327 4.458-32.612q0-4.693-0.469-10.557t-0.469-10.557q-0.939-5.631-0.939-11.731l-13.608-58.655q11.731-17.362 11.731-44.108t-11.262-47.862-27.216-29.093l-0.939-2.815q-5.631-24.87-8.212-44.578t-2.581-34.254q0-19.238 3.285-31.673t8.212-20.647 10.089-13.374 10.323-8.915q11.731-12.669 20.177-19.474t13.139-10.557l9.854-6.569v-131.856h-459.384v103.702z" />
<glyph unicode="&#x41;" d="M30.755 187.573q0 24.87 17.831 42.701t42.701 17.831h841.814q24.87 0 42.701-17.831t17.831-42.701v-59.594q0-24.87-17.831-42.701t-42.701-17.831h-841.814q-24.87 0-42.701 17.596t-17.831 42.935v59.594zM30.755 398.73v59.594q0 24.87 17.831 42.701t42.701 17.831h841.814q24.87 0 42.701-17.831t17.831-42.701v-59.594q0-24.87-17.831-42.701t-42.701-17.831h-841.814q-24.87 0-42.701 17.831t-17.831 42.701zM30.755 669.012v60.531q0 24.87 17.831 42.232t42.701 17.362h841.814q24.87 0 42.701-17.362t17.831-42.232v-60.531q0-24.87-17.831-42.232t-42.701-17.362h-841.814q-24.87 0-42.701 17.127t-17.831 42.466z" />
<glyph unicode="&#x42;" d="M33.57 342.891q0 24.87 17.362 42.232t42.232 17.362h299.844q24.87 0 42.232-17.127t17.362-42.466v-299.844q0-24.87-17.362-42.232t-42.232-17.362h-299.844q-24.87 0-42.232 17.362t-17.362 42.232v299.844zM33.57 582.202v299.844q0 24.87 17.362 42.232t42.232 17.362h299.844q24.87 0 42.232-17.127t17.362-42.466v-299.844q0-24.87-17.362-42.232t-42.232-17.362h-299.844q-24.87 0-42.232 17.362t-17.362 42.232zM572.725 342.891q0 24.87 17.362 42.232t42.232 17.362h299.844q24.87 0 42.232-17.127t17.362-42.466v-299.844q0-24.87-17.362-42.232t-42.232-17.362h-299.844q-24.87 0-42.232 17.362t-17.362 42.232v299.844zM572.725 582.202v299.844q0 24.87 17.362 42.232t42.232 17.362h299.844q24.87 0 42.232-17.127t17.362-42.466v-299.844q0-24.87-17.362-42.232t-42.232-17.362h-299.844q-24.87 0-42.232 17.362t-17.362 42.232z" />
<glyph unicode="&#x43;" d="M31.694 682.384q0 28.858 10.557 55.604t32.612 49.27l114.495 114.025q21.116 21.116 48.332 32.143t56.074 11.027 55.84-11.027 49.035-32.143l165.172-166.111q21.116-20.177 31.909-46.22t11.731-52.789v-5.161q0-24.401-8.447-47.862-9.385-26.277-27.216-48.801l-78.832 79.771q4.693 10.793 3.285 22.289t-11.262 19.943l-165.172 166.111q-10.793 10.793-26.512 10.793t-26.043-10.793l-113.556-113.086q-10.793-11.731-10.793-26.982t10.793-26.043l165.172-165.172q8.447-8.447 20.177-10.557t22.055 2.581l79.771-79.771q-22.055-18.301-48.332-26.746-23.462-7.508-47.393-7.508h-5.161q-26.277 0.939-52.555 11.966t-46.454 31.204l-166.111 165.172q-22.055 21.116-32.612 48.566t-10.557 56.309zM284.144 635.226q0 22.992 16.423 39.416t39.416 16.423 39.417-16.423l339.259-339.259q16.423-16.423 16.423-39.416t-16.423-39.417-39.416-16.423-39.416 16.423l-339.259 339.259q-16.423 16.423-16.423 39.416zM416.939 291.275v5.162q0 23.931 7.508 47.393 8.447 26.277 27.216 48.332l79.771-79.771q-4.693-10.793-2.815-21.819t10.323-19.474l165.172-166.579q11.731-10.793 27.216-10.557t25.808 10.557l113.556 114.495q11.731 10.793 11.496 26.043t-11.496 26.043l-165.641 166.111q-8.447 8.447-19.943 10.089t-22.289-3.519l-79.771 79.771q21.585 18.301 47.862 27.685 23.931 8.447 48.332 7.977h5.161q27.216-0.939 52.789-11.966t46.689-31.204l165.641-166.111q22.055-22.055 33.081-49.035t11.262-55.84-11.027-56.309-33.316-48.566l-113.556-113.086q-22.055-22.055-49.035-33.316t-55.84-11.262-56.074 11.027-48.332 33.551l-166.579 165.172q-20.177 20.177-31.204 45.986t-11.966 53.024z" />
<glyph unicode="&#x44;" d="M30.755-28.746l37.539 103.702 66.163-65.224zM79.556 108.741l63.348 178.78 204.119-204.119-178.78-63.348zM159.327 315.206l503.492 503.492 215.38-215.38-503.492-503.492zM257.397 316.144l22.992-23.931 405.422 405.422-23.931 22.992zM304.322 269.22l24.401-24.401 404.483 405.891-22.992 22.992zM351.715 221.827l23.931-23.931 404.483 405.422-22.992 22.992zM685.812 840.753l73.202 73.202q20.177 20.177 48.096 20.177t47.159-19.238l119.186-119.186q19.238-19.238 19.238-47.628t-19.238-47.628l-74.139-74.139z" />
<glyph unicode="&#x45;" d="M31.694 152.849q0 29.562 21.116 50.678l255.734 255.734-255.734 254.797q-21.116 21.116-21.116 50.678 0 13.608 5.161 27.45t15.954 24.635l102.763 101.824q21.116 21.116 49.74 21.116t52.086-21.116l255.735-255.734 254.797 255.734q21.116 21.116 50.678 21.116 27.685 0 51.147-21.116l102.763-101.824q10.793-10.793 15.485-24.635t5.631-27.45q0-29.562-21.116-50.678l-255.734-254.797 255.734-255.734q21.116-22.992 21.116-50.678 0-29.562-21.116-51.147l-102.763-101.824q-22.055-22.055-51.147-22.055-28.624 0-50.678 22.055l-254.797 254.797-255.735-254.797q-22.055-22.055-52.086-22.055-27.685 0-49.74 22.055l-102.763 101.824q-10.793 10.793-15.954 24.165t-5.162 26.982z" />
<glyph unicode="&#x46;" d="M32.633 155.664q0 37.539 0.469 74.609t0.469 73.202q0 23.931 3.285 46.22t14.781 39.651 32.612 27.451 56.777 10.089q11.731 0 22.523-0.704t21.585-0.704q7.508 0 16.423 1.173t18.301 1.173q13.608 0 28.389-5.396t14.781-21.819q0-7.508-2.815-16.189t-2.815-16.189v-271.22q0-10.793 2.815-26.512t2.815-30.266q0-35.663-30.5-35.663-7.508 0-13.842 1.173t-13.374 1.173q-7.508 0.469-16.893 0.469-12.2 0.469-28.624-0.469-5.161 0-10.323-0.469-24.401-0.469-46.924 4.223-28.155 5.631-48.566 21.585t-20.412 50.208q0 18.301-0.469 36.6t-0.469 36.6zM317.93 7.854q1.877 0 3.754 2.815 1.877 1.877 3.519 5.161t1.642 8.915v369.29q0 11.731-3.050 17.831t-3.050 12.669 7.039 14.547q22.055 24.87 36.366 49.505t35.427 49.505q78.832 95.255 155.788 193.327 7.508 8.447 10.089 19.004t2.581 22.289q0 19.238-4.458 38.947t-4.458 38.008q0 9.385 1.408 20.412t6.804 19.708 15.485 14.547 27.451 5.866q28.624 0 47.862-16.893t30.266-42.466 15.954-55.37 4.927-55.604q0-32.846-4.458-50.913t-11.731-34.020-15.72-34.724-17.362-51.147q16.423 0 30.266-0.469t28.858-0.469 31.439-0.469 36.6-0.469q14.547 0 24.401 2.815t18.535 6.1 18.301 6.1 24.165 2.815q15.485 0 36.131-1.877t39.417-8.915 31.673-21.116 12.904-38.008q0-13.608-1.408-26.746t-1.408-22.523q0-13.608-10.089-21.585t-20.881-12.669q21.116-10.793 26.043-27.451t4.927-35.897v-28.624t-3.519-28.858-12.669-23.931-26.043-13.842q8.447-8.447 11.262-22.523t2.815-28.624q0-12.669-0.939-23.931t-0.939-21.116q0-19.238-9.62-29.797t-20.647-16.893-20.647-8.681-9.62-5.162q0-1.877 0.469-4.693t0.469-4.693q0-17.362-5.631-34.724t-16.189-31.204-26.043-22.992-33.785-9.15q-125.756 0-250.573 0.469h-49.74q-99.948 0-200.365-1.408z" />
<glyph unicode="&#x47;" d="M32.163 401.076q0.469 11.262 1.408 21.819t0.939 19.004q0 13.608 10.089 22.289t20.412 13.374q-13.608 5.631-19.708 14.781t-8.447 20.647-2.346 23.697v23.462q0 12.669 0.939 24.635t5.162 22.055 12.904 17.831 23.228 10.557q-7.508 8.447-10.557 20.647t-3.519 25.573 0.469 26.746 0.939 24.165q0 28.624 22.523 45.047 7.508 5.631 17.128 10.089t19.943 4.458q1.877 0.939 0.939 7.508t-0.939 8.915q0 17.362 5.866 35.427t16.423 33.081 25.573 25.104 33.785 10.089h488.477q8.447 0 12.435-1.408t4.927-4.458 0.469-8.681-0.469-14.547v-368.822q0-8.447 0.939-14.311t0.469-10.323-2.346-9.15-7.977-11.262q-21.116-24.87-38.947-49.505t-38.947-49.505q-40.354-47.862-78.598-95.49t-76.72-96.897q-9.385-11.731-11.731-26.277-0.939-8.915-0.939-18.301 0-6.1 0.469-12.2 1.408-15.485 4.693-30.736t3.285-29.797-3.285-29.797-17.831-22.758q-11.731-6.569-28.624-6.569h-5.631q-20.177 1.408-33.785 11.262-22.055 15.485-34.958 40.824t-19.238 55.135-6.335 59.594 2.815 53.728q1.877 15.485 7.273 28.389t11.496 26.982 13.374 31.909 13.842 43.639h-85.401q-6.569 0-17.127-0.469t-22.055-1.408-22.055-3.519-16.658-6.335q-8.447-5.631-21.35-8.915t-26.982-4.927-27.45-0.939-22.289 2.581q-16.423 3.754-34.958 11.027t-28.389 22.289q-4.693 6.569-6.1 17.362-0.939 7.977-0.939 16.423v5.162zM768.867 502.431q-0.939 2.346-0.939 4.693 0 6.569 5.631 14.077 7.508 10.323 7.508 18.77v271.22q0 8.447-3.285 21.35t-5.631 26.043-1.877 23.697 8.915 16.189q8.447 5.161 15.016 5.161 1.877 0 3.754-0.469 7.977-1.877 19.708-1.877 14.547-0.939 28.389-0.939h27.451q19.238 0 39.885-2.346t37.539-10.089 27.919-22.523 11.027-40.12q1.877-36.6 1.877-73.202 0-18.301-0.469-36.6-1.408-55.37-1.408-111.21 0-27.685-2.581-53.259t-25.573-46.689q-12.669-10.793-27.45-15.484t-31.204-6.1q-9.385-0.939-19.238-0.939-6.569 0-13.139 0.469-16.423 0.939-31.909 0.939-8.447 0-19.238-1.408-7.039-0.939-13.139-0.939-4.223 0-8.447 0.469-9.854 0.939-17.596 5.396t-11.496 15.72z" />
<glyph unicode="&#x48;" d="M31.694 710.305q0 14.547 10.089 26.982t23.228 25.573l143.587 144.526q13.608 13.608 26.043 23.462t25.573 9.854q8.447 0 19.708-6.1t20.412-15.25 15.25-19.708 6.1-19.474q0-13.608-10.089-26.512t-23.228-26.043l-143.587-143.587q-13.608-13.608-25.808-23.931t-26.746-10.323q-8.447 0-19.238 6.1t-19.943 15.25-15.25 19.708-6.1 19.474zM60.318 549.824q0 22.055 16.423 42.232t38.478 42.232l222.888 223.827q22.055 22.055 41.762 38.478t41.762 16.423q12.669 0 26.982-8.212t26.512-20.177 19.708-26.043 7.508-26.277q0-22.055-15.72-41.762t-37.773-41.762l-223.358-224.296q-22.055-22.055-41.762-38.712t-41.762-16.658q-12.669 0-26.982 7.977t-26.277 20.177-20.177 26.043-8.212 26.512zM301.506 562.964l112.617 112.617 313.452-310.635-112.617-113.086zM521.578 91.379q0 22.055 16.423 42.232t38.478 42.232l222.888 223.827q22.055 22.055 41.762 38.478t41.762 16.423q12.669 0 26.512-7.742t26.512-19.708 20.647-26.512 7.977-26.746q0-22.055-16.189-41.762t-38.243-41.762l-222.888-223.827q-22.055-22.055-41.997-38.947t-41.997-16.893q-12.669 0-26.982 8.212t-26.277 20.177-20.177 25.808-8.212 26.512zM703.174 43.047q0 14.547 10.089 26.982t23.697 26.043l143.117 144.056q13.608 13.608 26.043 23.697t26.982 10.089q8.447 0 19.004-6.335t19.708-15.485 15.484-19.708 6.335-19.004q0-13.608-10.557-26.512t-24.165-26.512l-142.18-143.117q-13.608-13.608-26.043-24.165t-26.982-10.557q-8.447 0-19.004 6.335t-19.708 15.485-15.485 19.708-6.335 19.004z" />
<glyph unicode="&#x49;" d="M37.6 327.875q0 57.716 22.055 108.629t60.063 89.155 89.859 61.001 111.444 22.758q54.901 0 105.814-20.647t89.859-57.247 61.94-87.982 22.992-111.913q0-16.423-1.877-32.378t-5.631-31.909q-0.939 0-0.939 0.939t-1.408 1.877h-21.116q0.939 0 2.581 5.631t3.050 13.374 2.346 14.547 0.939 8.681q0 6.569-9.15 17.596t-19.708 22.992-19.708 23.697-9.15 20.177q0 19.238 2.346 39.417t4.223 39.416q0 4.693-2.815 9.385-40.354 53.962-107.456 82.117-0.939 0-1.877 0.469t-2.815 0.469q-7.508 0-20.647-6.804t-27.216-15.016-26.512-15.016-19.004-6.804q-7.508 0-19.238 4.927t-24.635 11.262-25.808 12.904-22.758 11.262q-1.877 0.939-4.693 0.939-1.877 0-3.285-0.469t-3.285-0.469q-62.409-27.685-106.048-85.401-2.815-4.693-2.815-10.323 1.877-21.116 5.396-43.405t3.519-43.405q0-7.508-8.681-17.596t-19.238-21.116-19.238-22.055-8.681-19.004q0.939-15.485 6.804-38.947t14.781-45.986 20.647-39.885 24.87-19.238q30.97-4.693 47.862-10.557t26.982-14.547 16.658-20.647 18.301-30.266q2.815-4.693 12.904-7.977t22.992-5.161 25.339-3.050 21.35-1.173q22.055 0 41.762 3.988t41.762 10.557q8.447 2.815 15.25 14.311t13.608 25.104 15.016 24.165 20.412 10.557v-12.904t0.939-12.904q0.939-8.447 3.519-17.362t2.581-17.362q0-2.815-3.285-3.754-71.324-44.108-147.81-44.578-55.84 0-107.221 20.177t-91.267 57.247-63.816 89.389-23.931 116.137zM226.703 341.013q0 3.754 10.089 12.904t24.635 19.708 28.858 20.647 23.228 17.127q2.815 2.815 6.569 2.815 5.631 0 17.127-7.742t25.104-18.77 26.512-21.585 20.412-16.189q5.631-4.693 6.1-9.854 0-0.939-0.469-1.877t-0.469-1.877q-8.447-24.87-16.423-49.035t-15.484-49.035q-1.877-4.693-14.781-6.569t-30.736-1.877-36.6 0.469-31.439 0.469q-4.693 0-10.323 12.435t-11.496 29.797-10.793 34.958-8.681 28.389q-0.939 1.877-0.939 4.693zM278.789 654.465q0 26.746 5.631 57.716 22.992-16.423 45.751-32.378t45.751-31.909q-3.754-4.693-7.273-11.027t-8.212-6.335q-22.055 2.815-43.17 2.815-9.385 0-18.77-0.469t-18.77-1.408q0 5.631-0.469 11.496t-0.469 11.496zM290.988 721.566q33.785 22.055 74.609 35.193t81.178 16.893q1.877 0 4.927 2.346t9.62 2.346q-7.508-18.301-15.954-28.155t-15.954-21.585q-11.731-17.362-22.992-34.724t-23.931-34.724q-22.055 16.423-45.047 31.204t-46.454 31.204zM434.576 632.41q24.87 35.663 49.27 72.497t49.74 73.436q11.731 0 22.523-4.693t22.523-6.569q57.716-11.731 112.852-38.243t104.171-63.816 89.389-83.055 67.101-96.897q0.939-1.877 1.408-4.693 0-2.815-1.408-4.693l-94.786-135.61-1.877-3.754q-3.754 2.815-7.273 5.162t-7.273 5.631q2.815 4.693 7.273 9.854t4.458 10.323q0-1.877-5.396 6.1t-13.842 7.977q-4.693 0-8.681-6.1t-7.742-12.2q-4.693 3.754-9.62 6.804t-9.62 6.804q1.877 4.693 6.569 10.557t4.693 10.557q0-1.877-3.754 4.927t-10.323 6.804q-3.754 0-8.212-6.335t-9.15-12.904q-4.693 3.754-9.62 6.569t-9.62 6.569q3.754 4.693 7.508 10.089t3.754 11.027q0 1.877-7.977 8.212t-8.915 6.335q-5.631 0-10.089-6.804t-8.212-11.496q-4.693 2.815-9.62 6.335t-9.62 7.273q3.754 4.693 7.977 11.027t4.223 10.089l-5.631 5.631q-5.631 5.631-8.447 6.1-3.754 0-8.681-6.804t-8.681-12.435q-4.693 2.815-9.62 6.1t-9.62 7.039q3.754 4.693 7.039 10.089t3.285 10.089q0-0.939-1.408 1.408t-3.754 5.396-5.162 5.396-7.039 2.346q-4.693 0-8.915-6.335l-7.977-11.966q-4.693 3.754-10.089 6.804t-10.089 6.804q3.754 5.631 7.977 11.496t4.223 9.62q0 1.877-4.693 5.631t-8.915 5.631q-4.693 0-9.385-7.039t-8.447-12.2q-4.693 3.754-9.62 6.804t-9.62 6.804q3.754 4.693 7.508 10.557t3.754 9.62q0-1.877-3.754 4.927t-14.547 10.557q-4.693 0-8.915-6.804t-8.447-12.435q-4.693 3.754-9.385 7.039t-9.854 6.569q3.754 5.631 7.742 11.262t3.988 9.854q0-1.877-4.223 4.693t-9.385 6.569q-4.693 0-9.385-6.1t-7.977-13.139q-4.693 3.754-9.385 7.273t-9.385 6.335q3.754 6.569 7.508 12.435t3.754 8.681-7.742 8.681-11.496 5.866q-4.693 0-8.447-6.804t-8.915-11.496q-4.693 3.754-9.385 6.569t-9.854 6.569q3.754 4.693 8.681 10.557t4.927 9.62q-2.815 2.815-6.569 6.1-2.815 1.877-5.396 4.223t-4.458 2.346q-3.754 0-7.742-6.804t-8.681-12.435q-3.754 1.877-6.569 6.335t-7.508 7.273zM486.192 137.365q0 21.116 7.742 38.947t21.585 31.204 32.143 21.116 40.354 7.742q20.177 0 37.539-7.742t30.736-21.116 21.116-31.204 7.742-38.008q0-43.17-28.389-72.029t-70.62-28.858-71.090 28.389-28.858 71.559zM494.169 138.302q0-19.238 6.569-36.131t19.238-29.327 29.327-20.177 35.897-7.742q22.992 0 43.639 11.262t34.254 31.439q7.508 10.793 10.557 22.992t3.050 24.87q0 8.447-2.581 19.708t-6.804 21.35-10.557 17.127-13.842 7.039q-2.815-8.447-6.569-16.423 1.877 0 3.754-1.877t1.877-3.754q0-2.815-2.346-4.223t-5.161-4.223q0-1.877 0.469-4.458t0.469-5.396l1.877 0.939q1.877-1.877 3.754-2.346t1.877-2.346-3.754-9.385q1.877-2.815 3.285-6.335t3.285-7.273l1.877 1.877q1.877-2.815 4.927-4.223t3.050-4.223-3.519-5.866-3.519-10.557q0-4.693 3.050-5.396t3.050-4.458q0-4.693-2.581-6.569t-5.396-3.285-5.162-3.988-2.346-7.273q2.815-2.815 2.815-5.631 0-4.693-5.631-4.693-1.877 0-3.988 0.469t-3.988 0.469q-1.877-0.939-9.385-7.039l1.877-1.877q-1.877-1.877-1.877-4.223t-1.877-3.285q-1.877 0-5.866 1.408t-3.988 3.285q-13.608-2.815-15.485-6.569t-6.569-3.754q-2.815 0-4.223 3.285t-15.954 7.039q0-1.877-3.285-3.285t-5.161-1.408q-3.754 0-3.754 3.754t0.939 5.631l-11.731 8.915q0-2.815-6.569-2.815-2.815 0-4.458 2.346t-1.642 3.285q0 1.877 4.223 5.631-1.877 4.693-3.988 7.742t-3.988 6.804l-1.877-1.877q-2.815 1.877-6.1 2.346t-3.285 5.162 1.877 10.089 1.877 10.089v-0.939q-0.939 2.815-0.939 8.915 0 5.631 4.693 5.631 0.939 0 4.693-1.877 0 4.693 3.519 7.508t3.519 7.039q0 2.815-4.223 5.631 0 1.877 3.988 5.631t8.681 1.877q0 6.569-1.408 9.15t-3.285 3.519-3.285 1.408-1.408 2.346q0 5.631 1.877 9.854-0.939 2.815-2.581 6.569t-3.519 7.508q-7.508 0-13.842-6.1t-11.027-15.72-7.039-20.647-2.346-19.943zM527.485 121.879q1.877-2.815 4.458-4.223t2.581-2.346q0-2.815-2.112-5.161t-3.988-5.631q2.815-5.631 4.927-7.039t3.519-1.877 2.346-0.469 0.939-2.815q0-5.631-0.939-8.915 1.877-3.754 5.631-5.631 1.877 0 4.223 0.939t4.693 0.939q0.939 0 2.346-4.223t9.854-7.039q1.877 1.877 3.285 4.693t3.754 4.693q0.939-0.939 2.815-0.939h22.055q0.939 0 1.877 0.939 1.877-1.877 4.223-6.569t4.223-7.039q1.877 0.939 4.458 2.112t5.396 3.050q-0.939 0-0.939 0.469t-0.939 0.469q0.939 2.815 1.408 5.631t3.285 2.815q0.939 0 6.569-1.877 2.815 2.815 7.039 8.447-1.877-1.877-2.581 1.642t-0.704 5.396 2.112 2.346 3.988 1.408 3.754 2.346 1.877 6.1q0 3.754-2.815 6.335t-2.815 4.458 7.508 4.693q-1.877 3.754-2.346 7.273t-2.346 7.273q0-0.939-0.939-1.877-3.754 1.877-6.804 2.815t-3.050 3.754q0 1.877 2.112 2.815t2.112 3.754q0 4.693-5.866 11.496t-5.866 9.15q0 3.754 5.396 7.508t5.396 13.608q0 1.877-2.581 3.754t-2.581 3.754q0 4.693 4.927 5.396t9.62 8.212q-23.931 19.238-56.777 19.238-33.785 0-54.901-19.238 0.939-1.877 1.642-3.988t2.581-3.988q0 0.939 0.469 0.939t0.469 0.939q9.385-3.754 9.385-8.447 0-2.815-2.346-3.285t-2.346-6.569q1.877-6.569 5.631-11.731t3.754-8.447q0-2.815-0.939-3.285t-2.346-0.939-3.754-3.285-4.223-11.731q3.754-3.754 3.754-7.508 0-1.877-4.223-3.285t-5.161-1.408l-1.408 0.939q-1.877-3.754-2.346-6.804t-1.408-4.927zM562.208 430.638q3.754-5.631 6.804-11.731t7.742-13.608q1.877 3.754 3.754 6.804t3.754 5.866q-4.693 3.754-10.089 7.273t-11.027 7.273q0-0.939-0.469-0.939t-0.469-0.939zM599.747 447.061q4.693 4.693 8.681 9.385t8.681 9.385q4.693-2.815 8.915-5.631t9.385-6.569q-1.877-4.693-5.866-9.62t-3.988-9.62q0-1.877 8.212-7.742t10.089-5.866q4.693 0 8.212 5.396t7.273 11.027q4.693-3.754 9.62-6.569t9.62-7.039q-2.815-4.693-6.804-9.385t-3.988-9.854q0 1.877 4.927-4.693t9.62-6.569 8.212 5.631 8.212 11.731q9.385-7.508 19.238-13.608-3.754-4.693-6.804-9.62t-3.050-10.557q2.815-3.754 7.039-6.569 6.569-6.569 10.323-7.039 4.693 0 8.681 5.866t7.742 10.557q4.693-3.754 9.62-6.569t9.62-7.039q-4.693-4.693-8.212-10.323t-3.519-8.447q2.815-2.815 7.039-6.1 7.508-5.631 8.447-5.631 3.754 0 8.212 6.335t7.273 11.027q4.693-3.754 9.62-6.804t9.62-6.804q-1.877-4.693-5.866-9.62t-3.988-9.62q0-1.877 3.519-3.754t6.335-3.754q0 0.939 0.939 1.877 3.754-8.447 7.508-8.915 4.693 0 8.681 6.335t6.804 11.027q3.754-2.815 7.273-5.161t8.212-5.161q-7.508-10.793-14.311-20.412t-13.842-19.943q-5.631-8.447-16.658-24.87l-22.055-32.846t-20.647-28.389-13.374-11.966q-7.508 0-23.462 2.346t-20.647 7.039q-11.731 25.808-30.97 42.232t-45.047 25.339q-0.939 0-1.877 0.939 8.447 37.539 8.447 75.078 0 61.47-24.87 120.125zM811.844 172.087q21.116 29.562 41.527 58.42t40.589 57.951q22.992-16.423 45.516-31.909t46.454-31.909q-40.354-23.931-83.759-36.366t-90.328-16.189zM900.53 297.844q20.177 28.624 39.885 57.716t40.824 58.655q16.423-60.531 16.423-117.31 0-15.485-1.408-30.736t-3.285-31.673q-23.931 16.423-46.689 31.673t-45.751 31.673z" />
<glyph unicode="&#x4a;" d="M34.509 285.174q0 99.009 3.285 194.734t3.285 189.103q7.508 0 22.992 0.469t34.254 0.469 38.478 0.939 36.131 1.877 26.982 1.877 10.557 2.815q0 5.631-0.939 13.842t0 15.016 3.285 11.496 9.854 4.693h132.794q3.754 0 4.223 23.697t0.469 51.85 0.469 51.85 5.631 23.697q35.663 1.877 71.090 1.877t71.090 3.754q40.354 0 78.128-2.346t77.19-2.346v-95.255h154.849v-53.259t1.877-53.259h40.589t56.074-0.939 49.974-2.815 21.819-5.161q-3.285-30.97-3.285-61.94 0-12.669 0.469-25.339 1.877-44.108 1.877-87.279v-198.957q0-4.693-4.223-7.977-118.249-65.224-233.915-129.040t-232.038-134.202q-2.815-1.877-6.569-1.877-4.693 0-7.977 1.877-113.556 72.263-232.508 136.548t-236.262 129.51zM56.564 656.341q32.846-2.815 64.99-6.1t63.582-6.569v-427.476q3.754 1.877 10.089 4.223t12.669 4.927 10.557 4.927 4.223 5.161q0 81.647 0.469 163.295t0.469 165.172q33.785-1.877 65.458-4.693t65.458-5.631v-429.823q7.508 2.815 16.658 6.335t9.15 9.15v335.505q10.793-1.877 32.846-4.223t44.108-5.396 38.478-6.335 16.423-6.1q0-107.456-0.469-211.861t-0.469-211.861q1.877 1.877 2.815 1.877t1.877 0.939q32.846 19.238 65.458 38.947t65.458 39.885q1.877 0.939 3.285 12.435t1.877 29.327 0.469 39.417-0.469 42.232-0.939 37.539-0.469 25.339q0 43.17 0.469 87.044t0.469 87.982q0 2.815-17.831 5.631t-39.416 4.693-39.885 3.988-19.238 2.112v72.732q33.785-2.815 66.397-5.631t65.458-6.569v-427.007q11.731 5.631 34.489 17.362t46.454 24.165 40.824 23.931 17.127 16.189v358.499q-6.569 0-22.758 0.469t-33.551 1.408-30.5 2.581-13.139 4.458q0 6.569-0.469 20.881t0 28.389 1.642 24.635 3.988 10.557q30.97-3.754 63.582-4.693t63.112-0.939v-433.577q11.731 5.631 34.724 17.127t45.986 24.165 40.354 24.165 17.362 16.189q0 88.217-0.939 176.434v43.639q0 66.163 1.877 132.794 0 3.754-12.435 5.631t-30.266 2.346-36.6 0.469-30.97 0.939q-15.485 0.939-30.5 0.939h-30.5v106.987h-138.895v-154.38t-0.704-32.612-1.642-12.904q-3.754 0-7.039-0.469t-7.039-0.469v294.682q-34.724 0.939-69.212 1.877t-70.151 2.815v-376.329q-4.693-0.939-8.681-1.408t-8.681-0.469q0 7.508 0.469 20.881t0.469 26.043-1.408 21.585-5.162 8.915q-27.685 3.754-57.716 4.927t-57.716 5.866v133.733h-151.095q3.754-0.939 11.731-0.939 8.447 0 28.155-0.469t40.354-1.642 36.131-2.581 15.485-4.223v-122.002q-7.508-0.939-14.311-0.939t-14.781-0.939v80.709q-34.724 0-70.151 2.346t-70.151 2.346q-32.846 0-63.816-1.877t-63.816-3.754z" />
<glyph unicode="&#x4b;" d="M31.694 460.2q0 66.163 17.362 127.867t48.566 114.964 74.844 96.897 96.897 74.844 114.964 48.566 127.867 17.362q99.009 0 186.991-38.008t152.737-102.763 102.763-152.737 38.008-186.991q0-66.163-17.362-127.633t-48.566-114.963-74.844-97.133-97.133-74.844-114.964-48.566-127.633-17.362-127.867 17.362-114.964 48.566-96.897 74.844-74.844 97.133-48.566 114.963-17.362 127.633zM98.795 460.2q0-65.224 18.77-123.879t52.789-108.629 80.709-88.452 103.467-61.47q2.815 28.624 2.815 38.478 0 3.754-8.681 11.027t-20.647 15.954-24.401 19.708-18.535 24.635q-4.693 9.385-10.793 15.72t-11.966 11.496-9.62 8.681-3.754 7.273q0 2.815 0.469 5.631t0.469 5.631q0 7.508-4.927 15.25t-4.927 15.72q0 6.569 3.988 10.089t8.681 5.866l8.447 4.223t5.161 6.569q1.877 7.508 3.754 21.116t2.815 18.301q0 8.447-18.301 8.915-14.547 0-21.819 6.1t-10.557 14.781-6.1 17.362-8.447 13.374q-8.447 6.569-13.842 11.496t-14.311 11.496q-4.693 2.815-13.842 10.557t-19.238 16.423-18.77 17.362-11.496 14.311q-4.693 8.447-6.569 24.401t-2.815 32.378q-4.693-19.238-6.335-38.478t-1.642-39.416zM168.242 491.169q0-1.877 5.631-6.335t5.631-8.212q0-1.877-1.877-3.754l-0.939-0.939q6.569 0 10.557 2.815t6.804 6.1 7.039 6.335 14.077 3.050q9.385 0 9.385-7.039 0-4.693-1.877-8.447-4.693-11.731-7.977-15.954t-3.285-11.731q0-4.693 7.742-8.212t16.189-7.273 16.189-9.15 7.742-11.966q0-7.508-8.212-11.496t-8.212-5.866q0-8.447 4.458-13.374t10.089-6.804q6.569-2.815 15.485-3.754 6.569 0 9.385-8.212t5.162-8.212q-0.939 0 0.469 3.285t3.754 6.569 5.161 6.804 4.693 3.519q10.793 0 17.362-9.15t15.484-9.15q4.693 0 8.681 6.335t7.742 6.335q5.631 0 9.385-3.050t6.804-6.335 5.396-6.1 6.1-2.815q4.693 0 3.285 3.754t9.385 3.754q1.877 0 4.223-0.469t6.1-0.469q9.385-10.793 18.301-19.238 7.508-7.508 14.781-13.374t12.435-7.742q7.508-2.815 19.943-1.877t21.35-3.754q8.447-4.693 19.943-10.089t11.496-12.904q0-4.693-2.346-11.966t-2.346-13.374q0-7.508 11.731-7.508 4.693 0 9.385 0.469t9.385 0.469q9.385 0 12.904-6.804t9.62-8.681q9.385-4.693 26.746-4.223t34.020 1.408 28.858-1.877 12.2-14.547q0-6.569-3.988-11.966t-8.681-10.089-9.62-8.681-7.742-7.742q-5.631-7.508-5.161-14.781t-1.408-16.658q-2.815-23.931-12.435-37.539t-31.673-13.608q-7.508 0-12.904 1.877t-14.311 2.815q-9.385 0-11.731-7.039t-10.323-15.016q-9.385-9.385-22.523-14.781t-33.316-18.535q6.569-0.939 13.608-0.939h14.547q61.47 0 117.544 16.658t103.702 47.393 86.105 73.671 63.348 94.552q-5.631 2.815-9.385 4.927t-6.569 2.112q-8.447 0-13.374-4.458t-8.915-9.62-7.273-10.089-9.854-4.927q-7.508 0-11.027 0.939t-5.396 0.939q-2.815 0-13.374-6.1t-16.658-6.1q-8.447 0-17.127 8.447t-17.362 21.116-16.893 26.512-14.781 24.635q-6.569 9.385-6.569 11.262 0 0.939 1.408 6.335t3.285 11.966 3.285 13.842 1.408 11.027q0 7.508-2.815 14.781t-2.815 12.435q0 7.508 6.1 10.793t6.1 6.569q0 1.877-2.346 3.754t-2.346 9.385q0 22.992 9.15 36.131t20.647 23.697 20.647 22.523 9.15 32.143q0 1.877-0.469 4.693t-0.469 4.693q0 5.631 5.866 10.557t12.435 8.212 12.904 5.866 7.273 3.519q4.693 6.569 11.966 15.25t15.016 16.423 15.954 13.374 15.72 5.631q3.754 0 5.162-2.815t1.408-11.262v-10.793q0-8.447 3.988-16.658t19.004-12.904q-9.385 28.624-22.758 55.135t-29.797 51.382q-3.754-1.877-5.631-1.877-5.631 0-8.212 1.877t-4.458 4.693-4.927 4.693-9.62 1.877q-3.754 0-3.754-3.754 0-0.939 0.469-1.408t0.469-2.346q0-3.754-0.939-7.508t-0.939-8.915q0-4.693 3.754-13.842t6.569-9.15q1.877 0 3.519 0.469t3.519 0.469 1.877-9.385-8.681-15.72-13.374-7.273q-8.447-1.877-16.658-8.681t-30.736-6.804q-16.423 0-23.931 16.189t-7.508 32.612q0 11.731 3.754 16.893t8.681 8.212 8.681 4.458 3.754 4.223q0 5.631-5.161 10.557t-7.508 6.804q-1.877 0.939-2.346 4.223t-0.939 7.273-0.939 7.273l-0.469 3.285q-1.877 0-5.162-1.408t-7.977-1.408h-5.162q-6.569 0-7.977-6.335t-9.385-7.273q-5.631 0-17.596 2.346t-11.966 16.893q0 13.608 4.693 25.573t4.693 17.596q0 4.693-2.346 6.335t-4.693 2.112-4.693 1.408-2.346 5.631 2.815 12.435 7.508 7.742q-0.939 0 3.519-2.815t10.089-6.335 11.496-7.742 7.742-7.039q4.693-8.447 9.15-14.781t15.72-6.335q2.815 0 2.815 2.815 0 12.669-9.15 18.301t-9.15 10.323q0 1.877 0.469 2.815t0.469 2.346q0 5.631-8.447 6.569t-20.647 1.408-25.104 3.285-22.289 11.731q-5.631 4.693-19.708 14.311t-24.87 18.065q-24.87 5.631-49.74 8.915 4.693-1.877 7.977-2.346t7.508-1.408q7.508-6.569 14.077-13.608 5.631-5.631 10.557-11.966t4.927-10.089q0-0.939-4.223-4.927t-9.62-8.212-10.089-7.508-5.631-3.285q-3.754 0-4.458-4.458t-1.642-9.62-3.285-9.62-8.915-4.458q-20.177 0-27.451 6.804t-9.62 15.954-4.223 19.708-10.793 17.127q-8.447 5.631-16.189 14.781t-15.25 9.15q-1.877 0-6.1-1.877-4.693-3.754-7.508-4.223t-2.815-2.346q0-5.631 6.1-10.089t13.842-7.273 14.077-5.631 6.335-6.1q0-10.793-5.396-17.831t-11.966-12.2-13.374-7.742-8.681-2.581q-3.754 0-9.15 3.519t-11.731 7.742-13.374 8.212-15.954 3.988q-4.693 0-8.447-0.939t-8.915-0.939q-3.754 0-7.039 0.469t-7.039 0.469q-17.362 0-25.573-9.15t-8.212-14.311q0-0.939 1.877-6.569 0.939-2.815 3.754-9.62t5.866-13.374 5.396-11.496 4.223-4.927 2.815 8.212 0.939 10.089q0 2.815-0.939 7.273t-0.939 12.904q0 3.754 6.335 7.273t15.016 5.866 17.362 3.754 13.374 1.408 7.508-2.815 6.335-5.866 7.742-5.866 11.731-2.815h15.485q8.447 0 7.742-4.223t3.988-12.2q4.693-6.569 12.904-9.854t8.212-11.262q0-4.693-1.408-11.027t-1.408-11.027q0-10.793 3.754-14.547t8.681-5.161 8.681-1.877 3.754-3.285q0-4.693-4.927-10.089t-12.435-5.396q-9.385 0-17.127 3.754t-14.077 8.212-12.904 8.212-15.485 3.754q-7.508 0-11.966-2.815t-4.458-4.693q0-5.631 4.458-10.089t10.089-8.212 10.089-7.273 4.458-7.273q0-4.693-6.335-6.569t-13.842-1.877q-13.608 0-18.301 6.804t-7.039 6.804q-5.631 0-8.447-7.742t-5.161-17.362-4.927-17.831-6.335-9.15q-2.815-0.939-6.569-5.866t-7.273-10.557-6.804-11.027-5.161-6.335q-4.693-3.754-11.966-11.966t-14.781-12.904q-13.608-9.385-23.228-13.374t-9.62-10.557q0-4.693 1.877-8.681t3.754-8.212 3.988-10.557 2.112-14.781q0-9.385-6.1-9.854-14.547 0-21.116 10.557t-11.496 23.697-11.027 24.165-19.708 11.027q-3.754 0-6.569-2.581t-10.793-4.458q-10.793-2.815-15.954-7.039t-7.508-8.681-3.754-8.681-5.161-6.1q-7.508-5.631-13.374-7.273t-5.866-13.842zM247.074 482.254q0 0.939 1.408 6.804t3.285 5.866 7.742-4.458 13.374-7.273q13.608-4.693 20.177-10.323t9.385-11.027 3.519-8.681 0.704-1.408q0-2.815-3.519-2.815h-7.273q0.939 0-6.804 3.754t-17.362 9.15-17.127 11.027-7.508 9.385zM321.683 440.961q0 1.877 7.039 7.977 0.939 0 3.754-0.939 5.631-2.346 12.2-2.346 15.484-2.815 15.484-6.569 0-10.793-4.693-13.139t-10.793-2.346q-12.669 0-17.831 7.742t-5.161 9.62zM415.061 861.868q6.569 0 13.842-6.1t9.15-6.1 1.877 3.754q0 2.815 0.939 5.161t0.939 4.223-1.877 3.754q-6.569-1.877-12.435-2.346t-12.435-2.346z" />
<glyph unicode="&#x4c;" d="M15.694-24.053v833.367l288.112 114.964v-832.898zM335.715 104.517v832.428l288.112-115.432v-831.96zM655.735-24.053v833.367l320.959 127.633v-832.428z" />
<glyph unicode="&#x4d;" d="M99.733 847.791v91.032h823.513v-91.032l-320.959-412.461v-456.569l-182.534 91.501v365.068z" />
<glyph unicode="&#x4e;" d="M34.509 69.324v514.754q10.793-60.531 35.193-124.348t68.509-123.879 110.975-111.913 163.999-88.452l-40.354-125.756 443.9 131.387-286.236 363.19-43.17-134.202q-83.525 30.97-146.637 76.486t-108.629 97.836-76.486 106.517-49.974 103.702-28.625 89.859-13.842 63.816q12.669 11.731 28.625 18.301t35.193 6.569h771.428q39.417 0 65.928-26.982t26.511-66.397v-770.49q0-39.417-26.982-65.928t-65.458-26.511h-771.428q-38.478 0-65.458 26.511t-26.982 65.928z" />
<glyph unicode="&#x4f;" d="M19.448 498.208q-1.408-12.669-1.408-26.277 0-33.316 8.447-72.732 11.262-55.37 40.589-114.495t80.005-106.987q51.147-47.862 111.678-74.139t115.902-34.724q30.031-4.693 56.309-4.693 22.523 0 42.232 3.754 44.108 7.508 61.47 26.277 15.485 16.423 19.708 59.594 0.939 11.731 0.939 24.87-0.469 33.785-7.977 74.139-11.262 55.84-39.885 114.963t-79.771 106.987q-34.724 31.909-73.905 53.493t-79.066 34.020-78.363 17.127q-29.562 3.754-55.37 3.754-7.508 0-15.016-0.469-31.909-1.408-54.432-7.508t-30.97-15.954q-16.423-17.362-21.116-61.001zM133.942 488.354l1.877 22.992q21.116-1.877 50.913-10.557t64.521-25.104l16.893 35.663 21.116-10.793-16.893-35.663q12.669-7.508 24.401-14.781t24.401-16.658l18.301 26.746 19.238-12.2-19.238-28.155q9.385-7.508 18.065-15.25t17.596-16.189l23.931 32.378 18.301-14.077-25.808-34.724q9.385-10.793 18.535-22.289t17.596-24.165l31.909 32.846 16.423-16.423-35.663-35.193q27.685-44.108 45.986-96.194l-22.055-7.977q-7.508 23.931-18.065 45.751t-22.289 41.059l-33.316-33.785-16.423 16.423 36.6 37.539q-7.508 11.731-16.423 22.055t-17.362 21.116l-32.846-43.17-18.301 14.077 34.724 45.516q-8.447 8.447-17.127 15.72t-17.596 14.781l-35.193-52.555-19.238 13.139 36.131 53.962q-11.731 8.447-22.992 15.72t-22.992 13.842l-25.808-51.616-21.116 10.323 25.808 52.086q-30.97 16.423-58.186 23.931t-48.332 9.854zM401.877 504.309v219.134q0 14.547 9.62 24.165t24.165 9.62h32.378v-16.423q0-13.608 10.089-23.462t23.697-9.854h17.362q13.608 0 23.697 10.089t10.089 23.228v16.423h33.316v-16.423q0-13.608 9.62-23.462t24.165-9.854h16.423q13.608 0 23.462 10.089t9.854 23.228v16.423h33.785v-16.423q0-13.608 10.089-23.462t23.697-9.854h16.423q14.547 0 23.931 10.089t9.385 23.228v16.423h33.785v-16.423q0-13.608 10.089-23.462t23.697-9.854h17.362q13.608 0 23.462 10.089t9.854 23.228v16.423h35.663q14.547 0 24.165-9.62t9.62-24.165v-366.006q0-13.608-9.62-23.697t-24.165-10.089h-404.483q-8.447 22.055-22.992 48.096t-32.378 51.616-38.008 47.159-41.293 33.785zM485.401 749.72v32.378q0 10.793 7.273 18.065t18.065 7.273 17.831-7.273 7.039-18.065v-32.378q0-10.793-7.039-18.535t-17.831-7.742-18.065 7.742-7.273 18.535zM491.501 449.876q0-18.301 17.831-18.301h143.587q7.508 0 12.2 5.161t4.693 13.139q0 7.508-4.693 12.435t-12.2 4.927h-143.587q-7.508 0-12.669-4.927t-5.162-12.435zM491.501 520.732q0-7.508 5.162-12.435t12.669-4.927h143.587q7.508 0 12.2 4.927t4.693 12.435-4.693 12.904-12.2 5.396h-143.587q-7.508 0-12.669-5.161t-5.162-13.139zM491.501 592.995q0-18.301 17.831-18.301h143.587q7.508 0 12.2 5.161t4.693 13.139q0 7.508-4.693 12.435t-12.2 4.927h-143.587q-7.508 0-12.669-4.927t-5.162-12.435zM602.711 749.72v32.378q0 10.793 7.273 18.065t17.596 7.273q10.793 0 18.535-7.273t7.742-18.065v-32.378q0-10.793-7.742-18.535t-18.535-7.742-17.831 7.742-7.039 18.535zM706.413 449.876q0-7.508 4.927-12.904t12.435-5.396h143.117q18.301 0 18.301 18.301 0 7.508-5.396 12.435t-12.904 4.927h-143.117q-7.508 0-12.435-4.927t-4.927-12.435zM706.413 520.732q0-7.508 4.927-12.435t12.435-4.927h143.117q7.508 0 12.904 4.927t5.396 12.435-5.396 12.904-12.904 5.396h-143.117q-7.508 0-12.435-5.161t-4.927-13.139zM706.413 592.995q0-7.508 4.927-12.904t12.435-5.396h143.117q18.301 0 18.301 18.301 0 7.508-5.396 12.435t-12.904 4.927h-143.117q-7.508 0-12.435-4.927t-4.927-12.435zM720.021 749.72v32.378q0 10.793 7.742 18.065t18.065 7.273q10.793 0 18.065-7.273t7.273-18.065v-32.378q0-10.793-7.273-18.535t-18.065-7.742-18.301 7.742-7.508 18.535zM838.268 749.72v32.378q0 10.793 7.273 18.065t17.596 7.273q10.793 0 17.831-7.273t7.039-18.065v-32.378q0-10.793-7.039-18.535t-17.831-7.742-17.831 7.742-7.039 18.535z" />
<glyph unicode="&#x50;" d="M32.163 516.039v4.693q0 38.947 7.508 68.978 7.508 31.909 21.585 47.393 11.731 12.669 41.527 20.647t72.029 9.854q10.323 0.469 21.585 0.939 32.846 0 71.324-4.693 50.678-6.569 104.171-22.992t106.517-45.281 98.070-71.090 77.19-92.675 52.555-102.294 29.797-101.824 10.323-92.206q0-5.631 0.469-10.793-0.469-35.193-7.039-62.409-7.508-30.97-21.116-45.986-15.485-16.423-47.159-26.512t-73.905-11.496h-14.077q-36.131 0.469-77.424 6.1-49.74 7.508-102.060 25.104t-103.702 46.689-96.897 72.732q-45.047 43.17-77.19 93.143t-52.789 101.355-30.736 100.887-10.557 91.736zM185.135 541.848q27.685-1.877 64.521-12.904t78.128-31.204l-34.724-69.917 26.746-13.608 35.663 68.978q15.484-8.447 30.736-18.535t30.736-21.819l-48.801-70.855 24.87-18.301 48.801 69.917q11.731-9.385 22.758-19.474t21.819-20.881l-45.516-60.531 24.87-19.238 42.701 57.716q23.931-27.685 45.986-57.716l-49.27-49.74 21.585-21.116 45.047 44.108q16.423-25.808 29.327-54.197t23.228-60.297l30.031 9.854q-11.731 35.663-26.982 67.336t-33.551 60.297l46.924 47.393-22.055 22.055-42.232-43.639q-11.731 16.423-23.697 31.909t-25.104 30.031l34.254 45.986-23.931 18.301-32.846-42.232q-10.793 10.793-22.055 21.116t-23.931 20.177l25.808 36.6-25.808 17.831-23.931-36.131q-16.423 12.669-33.316 22.523t-32.846 19.708l22.992 46.924-27.216 13.608-23.931-46.454q-45.986 22.055-85.871 33.785t-67.57 13.608zM521.578 702.327q0 48.801 18.77 91.736t50.443 74.609 74.609 50.443 91.736 18.77 91.736-18.77 74.609-50.443 50.443-74.374 18.77-91.971q0-48.801-18.77-91.501t-50.443-74.609-74.609-50.443-91.736-18.535-91.736 18.535-74.609 50.443-50.443 74.609-18.77 91.501zM580.233 702.327q0-36.6 14.077-68.743t38.008-56.074 56.074-38.008 68.743-14.077 68.743 14.077 56.074 38.008 38.008 56.074 14.077 68.743-14.077 68.743-38.008 56.309-56.074 38.008-68.743 13.842-68.743-13.842-56.074-38.008-38.008-56.309-14.077-68.743zM654.374 672.766v59.594h73.202v72.732h59.594v-72.732h72.732v-59.594h-72.732v-73.202h-59.594v73.202h-73.202z" />
<glyph unicode="&#x51;" d="M46.241 326.936q0 19.238 29.562 35.897t81.178 29.093 120.125 19.708 147.341 7.273q77.893 0 147.107-7.273t120.594-19.708 81.178-29.327 29.797-35.663q0-16.423-27.685-34.724-11.731 9.385-26.512 16.658t-29.797 12.669-28.389 8.681-21.819 5.161q-48.801 10.793-111.444 15.954t-132.091 5.162q-68.978 0-131.856-5.396t-112.148-15.72q-8.447-1.877-21.819-5.161t-28.858-8.681-30.266-12.669-26.512-16.658q-27.685 16.423-27.685 34.724zM47.178 258.427q22.992-16.423 57.951-27.919t73.905-19.238 78.832-11.966 74.139-6.1 59.124-2.346 33.316-0.469 33.081 0.469 58.889 2.346 74.609 6.1 79.301 11.966 73.436 19.238 58.42 27.919l-44.108-167.987q-5.631-23.931-52.32-44.812t-119.891-34.020q-5.631 28.624-20.412 52.789t-35.897 41.762-48.096 27.685-57.013 10.089q-29.562 0-56.543-10.089t-48.566-27.685-36.366-41.762-20.881-52.789q-72.263 13.608-117.779 35.193t-50.208 48.332zM70.172 427.823q0 10.793 6.569 17.362t17.362 6.569q9.385 0 16.189-6.804t6.804-17.127q0-9.385-6.804-16.423t-16.189-7.039q-10.793 0-17.362 6.804t-6.569 16.658zM127.888 270.159q40.354 17.362 119.656 28.389t177.841 11.027q98.070 0 176.902-11.027t119.186-28.389q-52.086-16.423-128.806-26.043t-168.222-9.62q-90.563 0-167.518 9.62t-129.040 26.043zM141.026 451.754q0 9.385 6.804 16.189t16.189 6.804q10.793 0 17.596-6.804t6.804-16.189q0-10.793-6.804-17.362t-17.596-6.569q-9.385 0-16.189 6.569t-6.804 17.362zM212.35 474.746q0 10.793 6.569 17.362t16.423 6.569q10.793 0 17.362-6.804t6.569-17.127q0-9.385-6.569-16.189t-17.362-6.804q-9.385 0-16.189 6.569t-6.804 16.423zM330.599-9.272q0 6.335 1.877 11.966 6.569 40.354 31.909 67.336t60.063 26.982q19.238 0 36.6-9.62t30.266-25.339 20.177-37.539 7.273-45.751h-188.164v11.966zM536.125 718.75q0 45.986 17.362 85.871t47.159 70.151 70.151 47.628 85.401 17.362q45.986 0 85.871-17.362t70.151-47.628 47.628-70.151 17.362-85.871q0-45.047-17.362-85.401t-47.628-70.151-70.151-47.159-85.871-17.362q-45.047 0-85.401 17.362t-70.151 47.159-47.159 70.151-17.362 85.401zM590.087 474.746q0 10.793 6.569 17.362t17.362 6.569q9.385 0 16.189-6.804t6.804-17.127q0-9.385-6.804-16.189t-16.189-6.804q-10.793 0-17.362 6.569t-6.569 16.423zM591.026 718.75q0-34.724 12.904-64.521t35.427-52.32 52.789-35.427 64.051-12.904q34.724 0 64.99 12.904t52.789 35.427 35.427 52.32 12.904 64.521-12.904 64.99-35.427 52.789-52.789 35.427-64.99 12.904q-33.785 0-64.051-12.904t-52.789-35.427-35.427-52.789-12.904-64.99zM660.004 692.004v54.432h69.448v69.448h54.432v-69.448h69.448v-54.432h-69.448v-69.448h-54.432v69.448h-69.448zM660.943 451.754q0 9.385 6.804 16.189t16.189 6.804q10.793 0 17.596-6.804t6.804-16.189q0-10.793-6.804-17.362t-17.596-6.569q-9.385 0-16.189 6.569t-6.804 17.362zM731.328 427.823q0 10.793 6.569 17.362t17.362 6.569 17.362-6.804 6.569-17.127q0-9.385-6.569-16.423t-17.362-7.039-17.362 6.804-6.569 16.658z" />
<glyph unicode="&#x52;" d="M39.202 165.049q23.931 3.754 54.901 13.608 25.808 7.508 60.531 22.992t76.956 40.354q9.385 5.631 19.004 14.781t15.25 29.797q4.693 17.362 4.223 44.108v9.385q-0.939 33.785-13.608 87.747v2.815q-16.423 8.447-28.389 26.277t-16.658 42.701q-1.877 11.731-1.877 22.992 0 9.854 1.408 18.77 3.285 19.708 12.669 35.193l-15.954 71.324q-0.939 8.447-2.346 16.893-0.939 7.508-1.408 15.484t0.469 14.547q0.939 12.669 3.050 22.055t3.988 20.177q1.877 11.731 7.508 22.289t11.731 19.004q6.569 10.793 13.139 19.238h0.939q6.569 7.508 20.177 15.72t32.378 15.484 40.824 11.496 46.924 4.223h1.408q23.931 0 46.454-4.223t40.824-11.496 32.143-15.484 20.881-15.72q6.569-8.447 13.139-19.238 5.631-8.447 11.027-19.004t8.212-22.289q1.877-10.793 4.223-20.177t3.754-22.055v-14.311t-1.408-15.72l-1.877-16.893-15.954-71.324q9.385-15.484 12.669-35.193 1.408-9.385 1.877-18.77 0-11.262-2.346-22.992-4.693-24.87-16.658-42.701t-28.389-26.277l-0.939-2.815q-12.669-53.962-13.608-87.747 0-4.693-0.469-8.915-0.469-26.746 5.161-44.578 5.631-20.647 15.485-29.562t19.238-15.016q41.293-24.87 76.486-40.12t61.001-23.228q30.97-9.385 54.901-13.608v-124.818h-693.065v124.818zM565.218 481.785q3.754 34.724 16.893 47.862 9.385 10.793 43.17 15.954 15.954 2.346 34.254 2.346 21.116-0.469 44.578-3.285 45.047-5.631 93.143-24.87t88.452-56.777 62.643-84.463 30.736-90.094q6.1-30.97 6.569-57.247 0-11.262-0.939-20.647-3.754-33.785-15.016-46.454-14.077-14.547-47.862-20.647-15.954-2.815-34.254-2.815-20.177-0.469-43.639 3.285-44.108 6.569-91.032 27.451t-87.279 58.42-63.348 83.994q-22.992 46.924-31.439 90.094-6.1 30.97-6.569 57.247 0 10.793 0.939 20.647zM655.311 473.808q16.423-1.877 38.008-8.212t45.516-17.596l-20.177-41.293 16.423-8.915 20.177 41.293q8.447-4.693 17.596-11.027t19.004-12.904l-29.093-42.232 14.547-10.793 28.624 41.293q12.669-10.793 27.216-23.931l-27.216-35.663 14.547-10.323 24.87 33.785q7.508-7.508 13.842-16.423t13.374-18.301l-29.093-29.093 12.669-12.2 25.808 25.808q19.238-29.562 31.909-67.101l17.362 5.631q-6.569 21.116-15.954 39.885t-19.708 35.193l27.685 27.685-12.2 13.608-25.339-26.277q-7.508 10.793-14.311 19.474t-14.311 17.128l20.177 27.216-14.547 10.323-19.238-24.87-12.904 12.904t-13.842 11.966l15.485 21.116-15.485 10.793-14.547-21.116q-10.793 7.508-19.708 13.374t-19.708 11.496l14.547 27.685-16.423 7.977-13.139-28.155q-27.685 13.608-51.382 20.412t-40.12 8.681z" />
<glyph unicode="&#x53;" d="M70.172 574.694q0 9.385 4.693 18.065t10.323 16.658q6.569 8.447 16.423 15.954-2.815 0.939-5.631 3.285-4.693 2.815-4.693 7.508 0 1.877 3.285 4.693t7.977 2.815q5.631 0 9.854-5.631 1.877-2.815 2.815-5.631 0.939 0.939 3.754 1.877 1.877 0.939 4.927 1.877t7.742 0.939q21.116 0 28.389-6.335t9.15-13.374 1.877-13.374 6.569-6.335q1.877 0 41.762 3.754t97.602 3.754q10.793 0 30.031-0.469t39.885-1.408 38.243-1.408 25.573-1.408q16.423-1.877 24.87-4.693t11.731-2.815q2.815 0 3.285 5.631t3.285 12.435 9.62 12.669 23.228 5.866q4.693 0 7.508-0.469t5.631-1.408 5.631-1.408q0 3.754 3.519 6.804t8.212 3.050q3.754 0 7.273-2.346t3.519-6.1q0-6.569-4.927-7.742t-3.988-4.927q11.731-10.793 19.004-21.819t9.15-33.081q0-10.793-6.335-25.104t-13.608-27.685-13.842-22.758l-6.569-8.915q0.939-0.939 0.939-2.815 0-3.754-12.2-16.893t-27.919-26.982-31.204-25.808-22.055-14.781q-1.877-0.939-11.966-6.804t-22.523-12.669-25.104-11.966-21.116-5.162q-5.631 0-6.569 2.815-0.939 1.877 0 3.754-2.815 0-6.1-0.939-4.693-1.877-4.693-3.754 0-0.939 0.939-1.408t0.939-1.408q0-2.815-1.877-7.039-0.939-1.877-1.877-2.815 0-0.939 0.469-0.939t0.469-0.939q-0.939 0-2.815-6.1t-4.458-14.781-4.458-18.77-1.877-17.127q0-3.754 1.877-5.161t4.927-3.754 4.927-5.866 1.877-11.027q0-4.693-6.335-8.212t-6.335-11.027q0-8.447 4.458-27.685t15.72-37.539q4.693-7.508 14.547-13.842t19.474-12.2 16.658-11.027 7.039-11.262q0-1.877-0.469-2.346t-0.469-1.408q0 0.939 5.866-4.693t5.866-20.177q0-8.447-0.939-18.065t-0.939-17.596q0-7.508 0.939-10.323 1.877 0 7.508-3.988t11.496-9.62 10.089-12.435 4.223-13.374q0-14.547-37.774-21.819t-102.529-7.273q-24.87 0-51.85 1.877t-48.566 6.335-35.427 12.2-13.842 18.065q0 5.631 3.285 10.089t7.742 7.273 8.212 4.223 4.693 3.285q0.939 3.754 5.631 7.039 1.877 0.939 5.161 1.877v31.439q0 12.669 0.469 22.758t0.469 11.027q0 1.877 4.693 4.693 1.877 1.877 4.693 2.815-0.939 2.815 1.877 7.039 1.877 2.815 6.804 6.569t13.374 6.569q17.362 5.631 29.327 16.423t18.77 23.697 9.62 26.277 2.815 24.165q0 5.631-0.939 6.1t-0.939 2.346 0.469 3.050 0.469 2.112q0 1.877-4.693 3.285t-4.693 5.161q0 7.508 2.346 7.508t5.161 1.642 5.396 7.742 2.581 26.277q0 5.631-2.581 13.374t-5.396 15.485-5.161 13.374l-2.346 5.162q0 1.877 1.877 3.754l1.877 1.877-9.854 5.631q0 0.939-2.346-2.815t-4.223-3.754-12.904 5.161-24.87 12.435-27.919 15.954-22.523 14.311q-9.385 6.569-19.238 14.781t-19.004 16.893-16.189 15.954-11.262 11.966q-8.447 9.385-18.065 22.055t-17.831 26.982-13.374 30.736-5.161 33.785zM101.611 571.879q0-38.478 16.423-65.458t33.785-46.22q4.693-5.631 16.189-15.72t23.931-20.177 24.635-19.708 18.77-13.374q6.569-4.693 11.496-7.742t8.681-4.927q3.754-2.815 6.569-3.754-9.385 10.793-17.362 20.177-6.569 7.508-13.374 16.189t-8.681 13.374q-8.447 15.485-15.72 39.181t-11.966 46.22-7.273 40.824-2.581 24.87q0 2.815 1.408 2.815-2.815 0-5.161 0.939-4.693 1.877-4.693 5.631-0.939-1.877-2.815-2.815-3.754-1.877-7.508-1.877-0.939 0-6.804 2.346t-12.2 5.866-11.496 8.212-5.162 9.385 3.754 7.977h-0.939q-0.939 0-1.408 0.469t-1.408 0.469q-5.631 0-17.362-11.496t-11.731-31.673zM392.069 375.737q0-0.939 0.939-0.939h2.815q5.631 3.754 19.238 11.496t28.858 17.831 30.736 21.116 23.931 19.474q5.631 3.754 11.496 12.435t10.089 16.423 7.742 12.669 3.519 2.112v0.939l1.877 7.039t4.693 16.658 5.161 18.77 4.693 12.904q0 7.508-2.581 5.866t-2.581 8.681q0 1.877 4.927 9.15t9.62 7.273h2.815q-1.877 10.793-7.039 17.362t-10.323 10.323q-5.631 3.754-12.2 7.039-1.877 0-1.877-1.877v-4.223q0-0.939 0.469-1.408t0.469-2.346q0-6.569-4.458-11.027t-10.089-4.458q-1.877 0-3.754 0.469t-3.754 0.469q-6.569 0-7.742-5.631t-7.742-5.631q-2.815 0-4.223 2.346t-4.693 2.346q-2.815 0-4.223-4.693t-4.223-17.831-8.212-35.193-14.781-56.777q-4.693-16.423-14.781-32.612t-20.177-28.624-17.596-20.412zM581.172 755.351q0 38.478 15.016 72.497t39.885 59.124 59.124 39.885 73.671 14.781q38.478 0 72.497-14.781t58.889-39.885 39.885-59.124 15.016-72.497q0-39.416-15.016-73.436t-39.885-59.124-58.889-39.885-72.497-14.781q-39.417 0-73.671 14.781t-59.124 39.885-39.885 59.124-15.016 73.436zM628.565 755.351q0-28.624 11.027-54.667t29.797-44.812 44.578-29.797 54.901-11.027q28.624 0 54.197 11.027t44.108 29.797 29.797 44.578 11.262 54.901q0 28.624-11.262 54.197t-29.797 44.343-44.108 29.797-54.197 11.027-54.667-11.027-44.812-29.797-29.797-44.343-11.027-54.197zM687.22 731.419v46.924h57.247v58.655h47.393v-58.655h58.655v-46.924h-58.655v-57.716h-47.393v57.716h-57.247z" />
<glyph unicode="&#x54;" d="M31.694 33.663l53.493 160.479 393.221 393.221q-12.669 35.193-15.016 71.793-0.469 8.447-0.469 16.893 0 28.155 5.631 55.84 7.508 36.131 25.573 69.682t45.751 61.236q38.478 38.478 87.513 57.716t99.948 19.238 99.479-19.238 87.982-57.716q38.478-39.416 57.716-87.982t19.238-99.479-19.238-99.713-57.716-87.279q-27.685-27.685-61.47-45.751t-69.448-25.573q-27.216-5.631-55.84-5.631-8.915 0-17.362 0.469-37.070 2.346-71.793 15.016l-73.202-72.263 53.024-53.962-108.394-106.517-55.84 53.962-59.594-53.962v-106.517l-154.849-53.962-47.862-53.962zM734.143 728.839q0-19.474 13.608-33.081t33.081-13.608 33.081 13.608q14.547 13.608 14.547 33.316t-14.547 32.846q-13.608 14.547-33.316 14.547t-32.846-14.547q-13.608-13.608-13.608-33.081z" />
<glyph unicode="&#x55;" d="M31.694 441.9q0 30.97 11.966 58.42t32.143 47.628 47.159 31.673 57.482 11.496q30.97 0 58.42-11.496t47.628-31.673 32.143-47.628 11.966-58.42-11.966-58.186-32.143-47.393-47.628-31.673-58.42-11.496-57.716 11.496-46.924 31.673-32.143 47.393-11.966 58.186zM362.976 441.9q0 30.97 11.731 58.42t31.909 47.628 47.393 31.673 58.186 11.496 58.186-11.496 47.393-31.673 31.673-47.628 11.496-58.42-11.496-58.186-31.673-47.393-47.628-31.673-57.951-11.496q-30.97 0-58.186 11.496t-47.393 31.673-31.909 47.393-11.731 58.186zM694.728 441.9q0 30.97 11.496 58.42t31.673 47.628 47.628 31.673 57.951 11.496q30.97 0 58.42-11.496t47.628-31.673 31.673-47.628 11.496-58.42-11.496-58.186-31.673-47.393-47.628-31.673-58.42-11.496-58.186 11.496-47.393 31.673-31.673 47.393-11.496 58.186z" />
<glyph unicode="&#x56;" d="M32.633 34.601v849.322q0 22.055 16.189 38.478t38.712 16.423h848.383q22.992 0 38.947-16.423t15.954-38.478v-849.322q0-22.055-15.954-38.478t-38.947-16.423h-848.383q-22.055 0-38.478 16.423t-16.423 38.478zM487.324 400.607h92.909v-351.46h134.672v351.46h131.856l5.631 127.164h-137.487v92.91q0 25.808 9.15 40.824t43.874 15.016h80.709l2.815 118.249q-11.731 0.939-25.339 1.877-12.669 0.939-28.858 1.877t-35.427 0.939q-47.862 0-82.117-13.374t-56.309-35.897-32.612-52.32-10.557-61.705v-108.394h-92.909v-127.164z" />
<glyph unicode="&#x57;" d="M31.694 34.601v857.298q0 22.055 16.189 36.835t38.712 14.781h854.014q22.055 0 37.539-14.781t15.485-36.835v-857.298q0-22.055-15.485-37.539t-37.539-15.485h-854.014q-22.055 0-38.478 15.485t-16.423 37.539zM212.35 281.421q43.17-27.685 94.082-43.639t107.69-15.954q90.563 0 160.479 34.254t117.544 87.982 72.263 120.594 24.635 132.091v8.681t-0.939 8.681q38.478 27.685 66.163 68.039-36.6-16.423-76.017-20.177 20.177 12.669 35.193 30.97t22.523 41.293q-19.238-10.793-40.354-18.77t-43.17-13.139q-18.301 19.238-43.405 30.266t-52.789 11.027-51.85-10.089-41.997-28.155-28.389-42.232-10.557-50.913q0-15.484 3.285-30.031-82.586 4.693-153.441 40.824t-119.656 96.663q-7.508-14.547-13.842-30.736t-6.335-35.427q0-33.785 13.374-62.643t39.651-47.159q-7.508 0-14.547 1.642t-14.547 3.519-17.127 4.693-24.165 6.569v-0.939q0-23.931 9.62-45.516t26.043-38.947 37.539-28.858 43.17-16.658q-7.508-1.877-11.027-2.815t-12.904-0.939h-11.966t-12.435 2.346q12.669-39.416 46.22-64.99t77.19-26.512q-33.785-26.746-75.547-41.762t-89.155-15.016q-7.508 0-15.25 0.469t-15.25 1.408z" />
<glyph unicode="&#x58;" d="M32.633 189.449v-79.771q27.685 28.624 53.728 43.639t41.527 19.708q22.055 7.508 45.986 11.966t44.578 6.804 36.131 2.815 20.177 0.469h17.362t14.547-0.939q41.293-29.562 74.844-52.32t57.482-44.343 37.070-43.639 13.139-50.208q0-7.508-2.112-9.854t-3.988-11.262h81.647q6.569 10.793 9.15 30.5t2.581 38.947q0 35.663-13.374 65.458t-34.020 54.667-45.751 46.454-48.096 40.824l-50.208 39.416q-11.731 9.385-23.931 22.992t-12.2 36.6 12.904 38.478 26.512 28.624q21.116 17.362 41.762 35.663t35.897 41.293 24.87 51.85 9.62 67.336q0 35.663-8.681 66.866t-21.116 54.901-27.685 37.539-27.919 13.842h85.401l78.832 73.202h-295.151q-27.685 0-57.013-3.519t-60.063-12.2-61.94-23.931-61.236-39.181q-2.815-1.877-7.039-5.396t-4.223-5.396v-341.137q27.685-23.931 66.632-39.885t87.279-15.954q22.055 0 45.047 2.815-4.693-13.608-9.62-24.87t-4.927-29.562q0-32.846 13.374-54.432t28.858-40.824q-20.177-0.939-47.628-0.939t-58.186-3.285-61.94-12.435-58.889-28.389zM32.633 38.355v815.067q0 47.862 26.277 68.039t62.878 20.177h782.22q36.6 0 62.174-20.177t25.573-68.039v-170.333h-184.41v184.88h-74.139v-184.88h-184.41v-72.732h184.41v-184.88h74.139v184.88h184.41v-572.001q0-18.301-6.804-29.327t-18.77-16.658-27.919-7.742-34.254-2.112h-782.22q-18.301 0-34.489 2.112t-28.155 7.742-19.238 16.658-7.273 29.327zM88.471 669.949q0 29.562 7.508 57.013t23.462 47.628 38.947 32.143 54.901 11.966q43.17 0 75.782-25.808t54.197-64.755 32.846-83.759 11.262-82.351q0-16.423-6.804-38.008t-22.289-40.824-40.354-32.612-60.531-13.374q-45.047 0-77.19 22.992t-52.32 57.716-29.797 75.547-9.62 76.486zM991.755 613.172v0z" />
<glyph unicode="&#x59;" d="M48.117 255.612v495.047q0 24.87 18.065 43.17t43.405 18.301h371.637v123.879h61.47v-123.879h371.168q25.808 0 44.108-18.301t18.301-43.17v-495.047q0-25.808-18.301-44.108t-44.108-18.301h-371.168v-122.94h93.379q12.669 0 21.819-9.15t9.15-21.819v-62.409h-309.698v62.409q0 12.669 8.681 21.819t22.289 9.15h92.909v122.94h-371.637q-24.87 0-43.17 18.301t-18.301 44.108zM109.587 286.582q0-13.608 9.15-22.289t22.289-8.681h741.866q13.608 0 22.289 8.681t8.681 22.289v433.107q0 12.669-8.681 21.819t-22.289 9.15h-741.866q-13.608 0-22.523-9.15t-8.915-21.819v-433.107zM171.996 348.052v186.288q0 3.754 10.089 13.374t29.327 18.77 47.862 16.658q25.808 6.1 58.186 6.1h8.447q37.070-0.939 83.759-13.139t102.529-38.947q53.962-25.808 99.948-35.663 41.762-8.447 76.956-8.447h6.569q37.539 0.939 66.866 9.15t49.505 16.893 30.266 13.842 10.089 1.408v-186.288q0-12.669-9.15-21.819t-21.819-9.15h-618.926q-13.608 0-22.055 9.15t-8.447 21.819z" />
<glyph unicode="&#x5a;" d="M33.57 197.896v476.746l478.624-303.598 478.624 303.598v-476.746q0-18.301-7.273-34.489t-19.238-28.389-28.389-18.77-34.724-6.569h-778.466q-18.301 0-34.489 6.569t-28.155 18.77-19.238 28.389-7.273 34.489zM33.57 753.474v9.385q3.754 33.785 29.327 56.309t59.828 22.523h778.466q34.724 0 59.594-22.523t29.093-56.309q0.939-2.815 0.939-9.385l-478.624-303.598z" />
<glyph unicode="&#x5b;" d="M31.694 363.772q0 29.327 22.055 49.505l76.017 76.017q21.116 20.177 50.913 20.177t50.913-20.177l129.51-128.102 431.699 424.66q22.055 21.116 51.382 21.35t50.443-21.35l76.017-74.609q22.055-20.177 22.055-49.505t-22.055-50.443l-485.662-472.992-75.547-75.078q-21.116-21.116-50.913-21.116t-50.913 21.116l-78.832 76.956-175.026 173.149q-22.055 21.116-22.055 50.443z" />
<glyph unicode="&#x5d;" d="M31.694 221.827l17.362 1.877q17.362 2.815 38.478 9.854 18.301 5.631 42.701 16.189t53.024 27.919q5.631 3.754 12.904 11.966t7.273 34.958q0 21.116-8.447 64.755-16.423 11.731-26.982 32.612t-10.557 46.22q0 22.055 9.854 44.108l-10.793 46.924q0 1.877-0.939 11.966t-0.939 19.943q0 11.731 0.939 22.523t4.693 18.77q1.877 9.385 6.335 19.004t9.15 16.893 8.681 11.966 4.927 5.631l6.569 7.039q16.423 13.608 46.689 24.165t65.928 10.557q9.385 0 19.004-1.173t19.474-3.050q6.569 9.385 9.385 12.669l6.569 6.569q17.362 14.547 49.974 26.512t71.090 11.966h0.939q13.608 0 26.043-1.877t25.104-4.693q1.877 1.877 1.877 2.815l5.631 6.569h1.877q18.301 15.484 53.024 27.919t76.017 12.435 75.782-12.435 52.789-27.919l7.977-6.569q2.815-3.754 8.447-11.966t11.966-20.647 11.731-29.797 7.273-38.478q0-11.731-1.408-26.982t-1.408-17.128l-12.669-55.84q10.793-23.931 10.323-51.147 0-27.685-11.496-52.086t-30.736-38.008q-5.631-24.87-7.977-43.639t-2.346-32.378q0-31.909 8.681-42.232t16.189-15.485q33.785-20.177 62.643-32.612t49.505-18.77 33.316-8.681l12.2-2.346 17.362-2.815v-144.056h-961v129.51zM71.11 219.012v-88.217h114.025v99.009l17.362 1.877 11.731 2.346q11.262 2.346 30.97 8.681t46.689 17.831 58.889 30.736q5.631 3.754 13.374 13.374t7.742 39.181q0 12.669-1.877 30.031t-7.039 40.354q-18.301 12.669-29.327 35.663t-11.027 49.74q0 24.87 10.793 48.332l-11.731 51.616q0 1.877-1.408 16.423t-1.408 24.87q0 13.608 2.346 24.635t6.569 21.819q-4.693 0.939-9.62 1.408t-9.62 0.469q-33.785 0-58.889-10.557t-31.673-18.535l-1.877-1.877q-19.238-22.055-22.992-62.409 0-4.693 0.469-14.311t1.408-16.658l13.608-59.594-4.223-6.569q-7.508-12.669-7.508-30.5 0-16.423 7.273-30.97t16.658-19.238l8.915-3.754 1.877-11.731q5.631-24.87 7.977-43.639t2.346-35.193q0-35.663-11.027-52.789t-27.451-26.982q-45.047-26.746-79.536-35.427t-52.789 10.557zM224.551 196.019v-65.224h131.856v105.578l17.362 2.815q20.177 2.815 45.047 10.793 21.116 6.569 49.974 19.004t62.643 32.612q7.508 4.693 15.72 15.485t8.212 42.232q0 28.624-9.854 76.017-19.238 13.608-30.736 38.478t-11.496 53.962q0 13.608 2.581 25.808t8.212 22.992l-12.669 55.84q0 1.877-1.408 17.127t-1.408 26.982q1.877 19.238 4.927 34.020t10.557 29.327q-7.508 0.939-14.311 1.408t-14.781 0.469h-0.939q-18.301 0-34.489-3.285t-29.093-8.681-22.055-10.557-13.374-8.915l-1.877-2.815q-10.793-11.731-17.831-31.439t-7.039-42.701q0-7.508 0.469-15.25t1.408-12.904l14.547-64.285-3.754-6.569q-8.447-14.547-8.915-34.724 0-18.301 7.742-34.020t19.474-21.819l8.447-3.754 1.877-11.262q11.731-53.962 11.731-85.871 0-39.416-11.966-57.013t-28.389-28.389q-49.74-29.562-88.452-43.17t-57.951-18.301z" />
<glyph unicode="&#x5e;" d="M126.148 843.568q0 13.608 7.273 26.512t15.72 23.697q10.793 11.731 22.992 22.992-7.508 4.693-11.262 8.447t-3.754 7.742 7.508 8.681 12.904 2.346 8.212-6.1q3.754-4.693 5.631-11.731 4.693 3.754 12.669 6.1 6.569 1.877 15.72 1.877t21.819-4.693 18.77-11.027 7.977-12.435q2.815-6.569 1.877-13.139-1.877-10.793 2.581-13.139t9.15-2.346q3.754 0 16.189 3.285t26.982 5.162q6.569 0.939 26.746 1.642t44.343 1.173 48.096 0.469h39.417t43.405-0.939 57.013-2.112 55.135-2.581 37.774-2.346q24.87-1.877 36.366-6.1t16.189-4.223q6.569 0 7.039 19.238 0 10.793 10.557 20.177t27.919 12.2q8.447 1.877 15.72 1.408t11.966-1.408q5.631-0.939 11.262-2.815 0 7.508 9.62 11.966t17.596-2.112q7.508-7.508 3.285-13.374t-7.977-7.742q-2.815-0.939-3.285-3.285 0-0.939 1.408-2.815 16.423-15.485 26.746-31.673t12.2-47.159q0.939-15.485-8.447-36.6t-20.177-40.354q-13.608-22.992-29.562-45.986 7.508-4.693-7.039-18.535t-34.724-36.366q-10.793-10.793-24.87-22.523t-28.155-22.289-25.104-18.301-13.842-8.681-17.831-9.62-33.785-18.77-37.539-17.831-30.031-5.866q-4.693 0-6.569 5.161-0.939 1.877 0 4.693-4.693-0.939-8.915-2.815-7.508-3.754-5.631-5.161 3.754-3.754 0-10.323-1.877-3.754-3.754-7.039 2.815-3.754-7.977-21.116-2.815-4.693-4.223-16.189t-2.346-24.165q-0.939-14.547-1.877-31.439 5.631 0 5.631-5.631v-5.161q0-0.939 1.877-1.877l2.346-2.346t3.754-2.346q4.693-4.693 4.693-12.669 0-1.877-2.346-3.285t-4.693-3.285q-3.754-1.877-6.569-3.754 0.939-3.754-0.939-7.977-0.939-1.877-2.815-1.877v-10.323q0-4.693 0.469-10.557t1.408-13.374q1.877-14.547 9.15-34.254t16.658-33.316q8.447-14.547 28.858-26.982t38.712-19.943q8.447-3.754 11.731-8.681t3.754-9.15 0-7.742 0.469-3.519q1.877 0 8.212-4.223t6.335-6.1-0.469-16.423-0.469-30.5v-44.578q1.877 0 4.927-2.346t4.927-4.223q2.815-3.754 4.693-6.569 4.693 0 9.15-3.050t7.273-6.804q3.754-3.754 5.631-9.385 7.508-0.939 10.089-7.273t2.581-16.658q0-10.793-19.708-19.474t-45.047-14.311q-12.669-2.815-34.489-4.693t-46.924-3.050-50.443-1.173-44.578 0.939q-40.354 0.939-80.944 7.273t-66.397 14.311q-13.608 2.815-19.708 7.508t-8.915 10.089-2.815 10.557v9.854q0 6.569 7.508 12.669 3.754 2.815 7.508 3.754 0 4.693 3.519 7.273t7.273 4.458 9.385 2.815q1.877 6.569 7.977 9.385 2.815 1.877 6.569 3.285 0 25.808 0.939 45.986 0 17.362 0.469 32.143t0.469 16.658 7.039 7.039q2.815 2.815 6.569 4.693 0 4.693 3.754 9.385 2.815 4.693 9.15 9.62t19.943 9.62q12.669 3.754 23.931 11.966t20.881 17.362 16.893 19.238 11.027 18.065q3.754 8.447 7.273 19.943t5.396 22.992 1.877 19.708-1.877 10.089q-3.754 2.815-1.877 6.335t1.877 4.458q0 1.877-4.927 4.223t-7.742 4.223q-0.939 0-0.939 6.1 0 1.877 0.939 4.693 2.815 1.877 5.631 4.693 5.631 5.631 6.1 8.915 0 1.877 2.815 3.754 0.939 0.939 2.815 0.939 0 7.508 0.939 14.077 0.939 5.631 1.408 12.435t0.469 11.966q0 4.693-2.346 13.842t-5.161 18.301-5.866 17.362-4.927 11.966-1.877 6.1 0.939 4.223 2.815 3.754l-13.139 7.977q-1.877-1.877-2.815-3.754-1.877-1.877-2.581-3.050t-2.581-3.050q-1.877-0.939-17.128 6.335t-35.897 18.301-42.466 23.462-34.020 22.289q-13.608 9.385-27.919 21.585t-27.451 24.165-23.697 22.523-16.189 17.127-11.496 13.842-10.557 15.25q-5.631 7.508-10.793 15.954-6.569 8.447-14.311 22.992t-14.781 31.439-11.966 34.254-4.927 30.5zM172.134 834.183q2.815-20.177 9.15-44.343t15.25-37.305q8.447-13.608 13.374-18.77t6.804-10.323q1.877-5.631 7.039-17.127t20.647-27.919q7.508-8.447 23.931-22.992t34.724-29.327 35.663-28.389 25.808-20.177q9.385-6.569 16.658-10.557t11.966-6.804q5.631-3.754 10.793-5.631-13.608 15.484-23.931 29.562-9.385 11.731-18.77 23.697t-13.139 18.535-11.496 28.389-15.484 47.393-13.842 49.974-7.977 36.131-2.346 22.523-1.408 19.708q-0.939 10.793-0.939 20.177-3.754 0-7.977 0.939-6.569 1.877-6.569 7.508-2.815-2.815-7.039-4.693-2.815-1.877-6.1-2.346t-7.977 1.408q-9.385 4.693-9.15 8.447t-3.519 3.754-13.374 1.642-14.311 9.15q-4.693 6.569-4.927 14.311t5.866 10.557q-2.815 0.939-7.039 0.939-7.508 0-15.016-6.569-8.447-7.508-17.831-24.401t-7.508-37.070zM592.102 556.394q0.939 0 3.285-0.939 3.754-1.877 5.631-0.939 1.877 0 12.904 7.273t24.87 16.423 26.982 18.065 18.77 13.139l14.781 9.854t18.301 13.374 17.362 14.077 11.027 9.62q3.754 2.815 10.089 11.027t12.669 17.362 11.027 17.831 6.569 11.496q1.877 4.693 4.693 5.631h2.815q-0.939 0-0.939 2.815 0 5.631 5.162 15.485 2.815 5.631 5.162 15.25t4.223 19.238 3.285 17.831 2.346 11.027q1.877 4.693-2.815 7.039l-5.631 1.877v11.262q0 3.754 4.693 5.866t4.693 8.681q0 5.631 9.854 7.508 3.754 0.939 10.793 1.877-4.693 24.87-18.77 35.193t-18.77 13.139q-3.754 1.877-7.039-0.939-0.939-1.877 0-2.815 0.939-2.815 0.939-7.039 0-2.815-0.939-6.569t-3.754-8.447q-6.569-8.447-13.842-7.742t-13.842 0.704-8.681-4.693-4.927-8.447q-4.693-2.815-8.681-3.050t-5.866 1.642-3.754 3.988-6.569-1.642q-4.693-4.693-4.693-7.977-0.939-2.815 0-4.693-5.631-25.808-11.731-52.086-4.693-22.055-11.496-48.801t-13.374-50.208q-7.508-23.931-22.055-46.924t-29.093-41.293q-17.362-21.116-35.663-40.354z" />
<glyph unicode="&#x5f;" d="M33.57 163.172q0 10.793 6.335 18.065t13.842 7.273h86.34q8.447 0 14.781-7.273t6.335-18.065q0-9.385-6.1-16.658t-15.016-7.273h-86.34q-7.508 0-13.842 7.273t-6.335 16.658zM33.57 280.482q0 10.793 6.335 17.362t13.842 6.569h86.34q8.447 0 14.781-6.569t6.335-17.362-6.1-17.362-15.016-6.569h-86.34q-7.508 0-13.842 6.804t-6.335 17.127zM33.57 396.853q0 10.793 6.335 17.362t13.842 6.569h86.34q8.447 0 14.781-6.569t6.335-17.362-6.1-17.362-15.016-6.569h-86.34q-7.508 0-13.842 6.569t-6.335 17.362zM33.57 512.285q0 10.793 6.335 17.362t13.842 6.569h86.34q8.447 0 14.781-6.804t6.335-17.127q0-10.793-6.1-17.362t-15.016-6.569h-86.34q-7.508 0-13.842 6.569t-6.335 17.362zM33.57 629.595q0 10.793 6.335 17.362t13.842 6.569h86.34q8.447 0 14.781-6.804t6.335-17.127q0-10.793-6.1-17.596t-15.016-6.804h-86.34q-7.508 0-13.842 6.804t-6.335 17.596zM33.57 745.497q0 10.793 6.335 17.596t13.842 6.804h86.34q8.447 0 14.781-6.804t6.335-17.596-6.1-17.362-15.016-6.569h-86.34q-7.508 0-13.842 6.804t-6.335 17.128zM107.711 805.090q6.569 32.846 21.819 52.086t41.293 28.858 63.112 11.966 87.747 2.346h448.122q63.348 0 106.048-4.223t68.275-22.055 36.6-53.962 11.027-99.479v-489.885q0-63.348-11.027-106.283t-36.6-68.275-68.275-36.366-106.048-11.027h-448.122q-87.279 0-135.845 21.116t-68.743 73.671h22.992q23.931 0 40.354 17.362t16.423 42.232q0 22.055-12.904 38.478t-32.143 20.177q19.238 4.693 32.143 20.647t12.904 38.008-12.435 38.008-31.673 20.647q19.238 4.693 31.673 20.177t12.435 37.539q0 21.116-11.966 37.070t-31.204 20.647q19.238 4.693 31.204 20.647t11.966 37.070q0 22.055-12.904 37.774t-32.143 20.881q19.238 4.693 32.143 20.647t12.904 38.008-12.435 37.305-31.673 20.412q19.238 4.693 31.673 20.412t12.435 37.774q0 24.87-16.423 42.232t-40.354 17.362h-32.378zM335.76 307.463q-0.469-23.228 0.469-47.628t3.285-45.516 6.804-34.489 11.966-13.374h452.815q7.508 0 11.966 13.374t6.804 34.489 3.285 45.516 0.469 47.628-0.939 40.354-0.469 23.228q0 8.447-7.742 19.004t-20.177 21.116-28.389 20.647-32.378 19.943l-79.771 42.232q-1.877 11.731-1.877 22.055 0 8.447 1.408 16.658t6.569 11.966q7.508 4.693 11.731 14.547t6.569 20.177q2.815 11.731 3.754 25.808 1.877 14.547 2.815 30.97 0.939 13.608-0.939 29.327t-6.569 31.204q-8.447 24.87-24.401 40.354t-31.439 22.992q-17.362 9.385-37.539 13.608h-17.362q-21.116-3.754-38.478-13.608-16.423-7.508-31.673-22.992t-24.165-40.354q-4.693-15.484-6.1-31.204t-0.469-29.327q0.939-16.423 2.815-30.97 0-14.547 2.815-25.808 1.877-10.793 6.335-20.177t11.966-14.547q4.693-3.754 6.335-11.966t1.642-16.658q0-10.793-2.346-22.055l-79.771-42.232q-32.846-19.238-60.063-40.824t-28.155-39.885q0-5.631-0.469-22.992t-0.939-40.589z" />
<glyph unicode="&#x61;" d="M31.694 400.607v120.125q0 24.87 17.831 42.701t42.701 17.831h299.844v299.844q0 24.87 17.831 42.701t42.701 17.831h120.125q24.87 0 42.232-17.831t17.362-42.701v-299.844h299.844q24.87 0 42.701-17.831t17.831-42.701v-120.125q0-24.87-17.831-42.232t-42.701-17.362h-299.844v-299.844q0-24.87-17.831-42.701t-42.701-17.831h-119.186q-24.87 0-42.701 17.831t-17.831 42.701v299.844h-299.844q-24.87 0-42.701 17.362t-17.831 42.232z" />
<glyph unicode="&#x62;" d="M32.633 185.879l197.081 197.081v-139.364h556.047q18.301 0 30.97 12.904t12.669 31.204v137.487l27.685 28.155 103.702 104.641v-298.905q0-146.871-145.933-146.871h-585.14v-124.348zM63.133 340.728v298.905q0 145.933 146.402 145.933h585.14v124.818l197.081-197.549-197.081-197.081v138.426h-556.517q-18.301 0-30.736-12.669t-12.435-30.5v-138.426l-27.685-27.216z" />
<glyph unicode="&#x63;" d="M306.668 492.531q22.992 35.663 49.27 67.336t56.074 54.667 64.051 36.835 73.671 13.842h4.693q17.362 0 31.439-6.1 16.893-7.039 28.858-19.708t18.535-29.797 6.569-35.427q0-15.485-3.754-28.155l-140.302-463.138q0-1.877-0.469-2.346t-0.469-1.408q0-7.508 4.693-14.781t12.669-7.273q8.447 0.939 21.585 8.681t24.401 20.881l37.539 43.17 46.924 58.655q1.877-13.608 3.519-29.327t1.642-23.228q-22.992-35.663-49.035-67.336t-55.84-55.37-63.582-37.539-74.139-13.842h-2.815q-40.354 0-64.755 26.982t-24.401 63.582q0 16.423 3.754 28.624l139.363 461.262q0.939 1.877 0.939 6.569 0 7.508-4.693 14.311t-12.669 6.804q-8.447-0.939-20.881-8.447t-23.228-21.116l-36.6-42.232-46.924-58.655q-1.877 12.669-3.754 28.624t-1.877 24.401zM525.332 828.506q0 43.17 28.389 69.682t68.743 26.512 68.275-26.277 27.919-69.917q0-22.055-7.742-39.181t-20.647-30.266-30.266-19.708-37.539-6.569q-40.354 0-68.743 26.277t-28.389 69.448z" />
<glyph unicode="&#x64;" d="M31.694 272.974v600.625q0 24.87 17.831 42.701t42.701 17.831h660.219q24.87 0 42.701-17.831t17.831-42.701v-209.75h120.125q24.87 0 42.232-17.596t17.362-42.935v-600.625q0-12.669-8.681-21.116t-21.35-8.447h-720.75q-12.669 0-21.116 8.681t-8.447 20.881v240.25h-151.095q-12.669 0-21.116 8.681t-8.447 21.35zM92.225 333.505q0-13.608 8.212-22.289t21.35-8.681h90.563v300.781q0 24.87 17.362 42.701t42.232 17.831h480.5v59.594q0 12.669-8.681 21.35t-21.35 8.681h-600.625q-13.608 0-21.585-8.681t-7.977-21.35v-389.937zM92.225 845.445q0-16.423 10.557-26.746t26.043-10.323 25.808 10.557 10.323 26.512q0 15.484-10.323 26.043t-25.808 10.557-26.043-10.557-10.557-26.043zM212.35 845.445q0-16.423 10.557-26.746t26.043-10.323 25.808 10.557 10.323 26.512q0 15.484-10.323 26.043t-25.808 10.557-26.043-10.557-10.557-26.043zM271.944 62.286q0-12.669 8.681-21.116t20.881-8.447h601.564q12.669 0 21.35 8.681t8.681 20.881v391.345q0 12.669-8.681 21.116t-21.35 8.447h-601.564q-12.669 0-21.116-8.681t-8.447-20.881v-391.345zM271.944 574.694q0-15.484 11.027-26.512t26.512-11.027 25.808 11.027 10.323 26.512q0 16.423-10.557 26.982t-25.573 10.557q-15.485 0-26.512-10.557t-11.027-26.982zM332.475 845.445q0-16.423 10.557-26.746t26.043-10.323 25.808 10.557 10.323 26.512q0 15.484-10.323 26.043t-25.808 10.557-26.043-10.557-10.557-26.043zM392.069 574.694q0-15.484 11.027-26.512t26.512-11.027 25.808 11.027 10.323 26.512q0 16.423-10.557 26.982t-25.573 10.557q-15.485 0-26.512-10.557t-11.027-26.982zM512.194 574.694q0-15.484 11.027-26.512t26.512-11.027 25.808 11.027 10.323 26.512q0 16.423-10.557 26.982t-25.573 10.557q-15.485 0-26.512-10.557t-11.027-26.982z" />
<glyph unicode="&#x65;" d="M31.694 66.738q0 5.631 4.223 9.854t11.262 4.223h930.030q6.569 0 11.027-4.223t4.458-9.854q0-15.485-15.485-15.485h-930.030q-15.485 0-15.485 15.485zM92.225 141.348q0 12.669 8.681 21.35t20.881 8.681h780.344q13.608 0 21.819-8.681t8.212-21.35q0-13.608-8.212-21.585t-21.819-7.977h-780.344q-12.669 0-21.116 8.212t-8.447 21.35zM92.225 561.316v30.031l389.937 270.75h59.594l390.406-270.75v-30.031h-839.936zM181.381 231.91v269.812q0 12.669 8.681 21.35t22.289 8.681h59.594q12.669 0 21.116-8.681t8.447-21.35v-269.812q0-13.608-8.681-22.289t-20.881-8.681h-59.594q-13.608 0-22.289 8.681t-8.681 22.289zM362.038 231.91v269.812q0 12.669 8.681 21.35t21.35 8.681h60.531q12.669 0 21.116-8.681t8.447-21.35v-269.812q0-13.608-8.681-22.289t-20.881-8.681h-60.531q-12.669 0-21.35 8.681t-8.681 22.289zM541.756 231.91v269.812q0 12.669 8.681 21.35t22.289 8.681h59.594q12.669 0 21.116-8.681t8.447-21.35v-269.812q0-13.608-8.681-22.289t-20.881-8.681h-59.594q-13.608 0-22.289 8.681t-8.681 22.289zM722.413 231.91v269.812q0 12.669 8.681 21.35t21.35 8.681h60.531q12.669 0 21.116-8.681t8.447-21.35v-269.812q0-13.608-8.681-22.289t-20.881-8.681h-60.531q-12.669 0-21.35 8.681t-8.681 22.289z" />
<glyph unicode="&#x66;" d="M31.694 565.779l331.282 48.332 149.218 299.844 147.81-300.781 332.69-49.27-241.189-233.211 56.777-330.813-297.027 156.725-297.966-155.788 57.716 330.813z" />
<glyph unicode="&#x67;" d="M118.973 185.879v666.319q61.47-40.354 124.348-48.332 22.523-2.346 43.639-2.346 38.947 0 73.671 8.915 54.432 14.547 94.786 45.751t56.777 69.682q16.423-38.478 57.247-69.682t94.317-45.751q35.193-8.915 73.671-8.915 21.116 0 43.17 2.346 62.878 7.977 124.348 48.332v-666.319q0-39.417-15.25-62.878t-36.835-36.366-45.281-16.893-40.589-3.988q-60.531 0-102.997-11.027t-71.324-25.808-46.454-31.204-27.451-28.155q-10.793 11.731-29.327 28.155t-48.801 31.204-73.671 25.808-103.936 11.027q-17.362 0-41.762 3.988t-47.393 16.893-38.947 36.366-15.954 62.878zM152.758 191.041q0-26.746 12.904-43.639t34.020-26.043 47.159-13.139 51.85-4.927q44.108-1.877 78.363-9.15t60.063-17.831 44.578-22.523 31.439-23.228v452.346l-360.375-0.939v-290.928zM513.133 512.939h360.375v275.443q-12.669-3.754-24.87-7.508-22.992-7.508-50.208-12.669-14.547-2.815-26.512-4.693t-25.573-2.815q-4.693-0.469-9.854-0.469-9.854 0-21.116 1.408-16.893 1.877-39.885 6.569-11.731 1.877-34.254 11.027t-45.516 20.881q-14.547 6.569-29.327 16.658t-26.746 18.77-19.474 15.25l-7.039 7.039v-344.89z" />
<glyph unicode="&#x68;" d="M47.178 157.965l205.526 257.612q-27.685 40.354-43.639 87.279t-15.954 99.009q0 66.163 24.87 124.348t68.275 102.060 101.355 68.743 124.583 24.87q66.163 0 124.348-24.87t101.355-68.743 68.275-102.060 25.105-124.348q0-52.086-15.954-99.009t-43.639-87.279l205.526-257.612-212.565 28.625v-221.012l-252.45 317.206-249.165-317.206v221.012zM292.121 601.865q0-45.047 17.362-85.401t47.159-70.151 69.448-47.159 86.105-17.362q45.986 0 85.871 17.362t69.682 47.159 47.159 70.151 17.362 85.401q0 45.986-17.362 85.871t-47.159 70.151-69.682 47.628-85.871 17.362-85.871-17.362-69.682-47.628-47.159-70.151-17.362-85.871z" />
<glyph unicode="&#x69;" d="M34.509-0.122v892.022h956.307v-892.022h-956.307zM97.857 222.766h382.43v63.816h-382.43v-63.816zM97.857 159.418v-65.224h382.43v65.224h-382.43zM97.857 351.806h382.43v62.409h-382.43v-62.409zM136.334 682.15q0-63.348 19.708-87.279t51.616-23.931q69.917 0 69.917 108.863 0 59.124-18.301 86.105t-51.616 26.982q-31.909 0-49.27-22.055-22.055-27.685-22.055-88.686zM180.443 681.211q0 27.685 2.346 43.639t6.335 23.228 9.62 8.681 13.608 1.408q2.815 0 6.569-1.877t7.273-10.089 5.866-23.462 2.346-41.527q0-23.931-1.877-38.712t-5.396-22.992-8.681-11.262-10.793-3.050q-7.039 0.469-13.608 5.161t-10.089 18.535-3.519 52.32zM320.745 695.758q12.669 2.815 19.943 6.1t12.904 7.273 12.904 8.681 19.943 9.854v-154.849h30.5v224.765h-36.6q-2.815-19.238-12.435-29.797t-20.177-16.423-18.77-8.681-8.212-8.447v-38.478zM544.572 222.766h383.837v63.816h-383.837v-63.816zM544.572 159.418v-65.224h383.837v65.224h-383.837zM544.572 351.806h383.837v62.409h-383.837v-62.409zM589.149 682.15q0-32.846 5.161-54.432t14.781-34.020 22.523-17.596 28.389-5.161q70.385 0 70.385 110.271 0 57.716-18.301 84.698t-52.086 26.982q-30.5 0-49.74-22.055-21.116-28.624-21.116-88.686zM633.258 681.211q0 24.87 1.408 40.354t5.162 23.697 10.089 11.027 15.72 2.815q2.815 0 6.804-2.346t6.804-10.557 5.396-23.462 2.581-41.527q0-25.808-2.581-40.824t-6.335-22.992-8.681-10.089-9.62-2.112q-8.447 0.469-13.139 5.162-6.569 4.693-10.089 18.535t-3.519 52.32zM759.952 682.15q0-32.846 5.396-53.728t14.547-34.020 22.055-18.301 28.389-5.161q70.855 0 70.855 108.863 0 60.063-18.77 86.574t-52.086 26.512q-31.909 0-49.27-22.055-21.116-26.746-21.116-88.686zM803.121 681.211q0 26.746 2.581 42.232t6.335 23.228 9.62 9.62 13.374 1.877q2.815 0 6.569-1.877t7.273-9.62 5.866-22.992 2.346-42.466q0-45.047-5.866-60.531t-20.881-15.484q-8.915 0.469-13.608 5.161-5.631 4.693-9.62 18.535t-3.988 52.32z" />
<glyph unicode="&#x6a;" d="M32.633 95.133v619.863q0 18.301 7.273 35.193t19.238 28.858 28.155 19.004 35.427 7.039h70.386v-69.917q0-37.539 25.808-64.051t63.348-26.512h33.785q18.301 0 35.193 7.273t28.858 19.238 19.238 28.389 7.273 35.663v69.917h212.096l0.939-69.917q0.939-37.539 26.512-64.051t63.112-26.512h33.316q18.301 0 35.193 7.273t28.858 19.238 19.238 28.389 7.273 35.663v69.917h68.978q18.301 0 35.193-7.039t28.858-19.004 19.238-28.858 7.273-35.193v-619.863q0-19.238-7.273-35.663t-19.238-28.389-28.858-19.238-35.193-7.273h-779.405q-19.238 0-35.427 7.273t-28.155 19.238-19.238 28.389-7.273 35.663zM112.402 244.82v-79.771h160.479v79.771h-160.479zM112.402 297.844h160.479v80.709h-160.479v-80.709zM112.402 431.577h160.479v79.771h-160.479v-79.771zM246.135 728.604v153.441q0 12.669 8.447 21.35t21.116 8.681h46.924q12.669 0 21.35-8.681t8.681-21.35v-153.441q0-12.669-8.681-21.35t-21.35-8.681h-46.924q-12.669 0-21.116 8.681t-8.447 21.35zM325.437 244.82v-79.771h160.949v79.771h-160.949zM325.437 297.844h160.949v80.709h-160.949v-80.709zM325.437 431.577h160.949v79.771h-160.949v-79.771zM538.94 244.82v-79.771h160.479v79.771h-160.479zM538.94 297.844h160.479v80.709h-160.479v-80.709zM538.94 431.577h160.479v79.771h-160.479v-79.771zM672.673 728.604v153.441q0 12.669 8.681 21.35t20.881 8.681h47.393q12.669 0 21.116-8.681t8.447-21.35v-153.441q0-12.669-8.681-21.35t-20.881-8.681h-47.393q-12.669 0-21.116 8.681t-8.447 21.35zM752.444 244.82v-79.771h160.479v79.771h-160.479zM752.444 297.844h160.479v80.709h-160.479v-80.709zM752.444 431.577h160.479v79.771h-160.479v-79.771z" />
</font>
</defs>
</svg>
